<svg width="141" height="141" viewBox="0 0 141 141" fill="none" xmlns="http://www.w3.org/2000/svg">
<rect width="141" height="141" rx="40" fill="#1E2235"/>
<path d="M43 47.0391L48.112 103.88L71.0515 110L94.0547 103.995L99.1725 47.0391H43ZM88.5394 59.9794L88.2189 63.6673L88.0779 65.3709H61.1687L61.8116 72.9565H87.4382L87.2669 74.3668L85.6139 92.641L85.4925 93.7093L71.0862 97.5868V97.5837L71.0692 97.5913L56.6711 93.8516L55.6938 83.0706H62.7535L63.2535 88.4184L71.0824 90.4027L71.0862 90.2547V90.2623L78.9322 88.5878L79.7515 79.9099H55.3797L53.6514 60.4175L53.4826 58.4174H88.7075L88.5394 59.9794ZM48.3017 31H51.8555V34.5121H55.1072V31H58.6617V41.6337H55.1072V38.0729H51.8562V41.6337H48.3017V31ZM63.335 34.5267H60.206V31H70.0198V34.5267H66.8895V41.6337H63.335V34.5267ZM71.5774 31H75.283L77.5631 34.7365L79.8406 31H83.5481V41.6337H80.0075V36.363L77.5631 40.1438H77.5011L75.0548 36.363V41.6337H71.5768L71.5774 31ZM85.3174 31H88.8725V38.1191H93.8708V41.6343H85.3174V31Z" fill="#E44D26"/>
</svg>
