<svg width="141" height="141" viewBox="0 0 141 141" fill="none" xmlns="http://www.w3.org/2000/svg">
<rect width="141" height="141" rx="40" fill="#1E2235"/>
<path d="M103.424 91.7871L72.8921 109.428C72.2485 109.803 71.5169 110 70.7721 110C70.0272 110 69.2957 109.803 68.652 109.428L38.1201 91.7877C36.8054 91.0242 36 89.625 36 88.1401V52.86C36 51.3337 36.8054 49.9765 38.1201 49.213L68.652 31.5724C69.2957 31.1975 70.0272 31 70.7721 31C71.5169 31 72.2485 31.1975 72.8921 31.5724L103.424 49.2124C104.739 49.9759 105.544 51.3751 105.544 52.86V88.1407C105.502 89.625 104.696 91.0236 103.424 91.7871Z" fill="#8D6748"/>
<path d="M70.7295 36.363C70.0938 36.363 69.4575 36.534 68.9057 36.8728L42.5299 52.0965C41.385 52.7323 40.7073 53.9617 40.7073 55.2344V85.6805C40.7073 86.9951 41.385 88.1832 42.5299 88.8196L68.9057 104.043C69.4575 104.382 70.0932 104.551 70.7295 104.551C71.3652 104.551 72.0021 104.382 72.5533 104.043L98.9291 88.8196C100.074 88.1839 100.753 86.9532 100.753 85.6811V55.2344C100.753 53.9197 100.074 52.7323 98.9291 52.0965L72.5533 36.8728C72.004 36.538 71.3728 36.3618 70.7295 36.3637V36.363ZM70.7295 37.6357C71.1535 37.6357 71.5356 37.7635 71.917 37.9751L98.2928 53.1989C98.6525 53.414 98.9508 53.7183 99.1588 54.0823C99.3668 54.4463 99.4775 54.8577 99.4802 55.2769V85.7231C99.4802 86.5718 99.0136 87.3772 98.2928 87.8012L71.917 103.025C71.5356 103.237 71.1535 103.364 70.7295 103.364C70.31 103.363 69.8991 103.245 69.542 103.025L43.1662 87.8012C42.8065 87.5861 42.5083 87.2819 42.3003 86.918C42.0923 86.5542 41.9816 86.1428 41.9788 85.7237V55.2769C41.9788 54.4283 42.4454 53.6229 43.1662 53.1989L69.542 37.9751C69.9241 37.7635 70.3481 37.6357 70.7295 37.6357ZM70.8776 49.5938C70.3265 50.2727 69.3939 50.9936 70.4116 52.5199C70.7511 52.9014 70.9202 53.7074 70.8782 53.9617C70.8782 53.9617 72.4046 53.0717 71.4714 51.4602C70.9202 50.6122 70.6653 49.8907 70.8776 49.5938ZM69.1822 51.1633C68.8001 51.6299 68.207 52.0959 68.8853 53.1563C69.097 53.368 69.1816 53.9197 69.1816 54.0895C69.1816 54.0895 70.1999 53.4957 69.5642 52.3934C69.1822 51.8423 69.0131 51.3331 69.1822 51.1633ZM66.0857 54.811C65.9735 54.8111 65.8659 54.8558 65.7865 54.9352C65.7072 55.0145 65.6625 55.1221 65.6623 55.2344C65.6623 56.6761 65.874 61.6371 67.9947 64.0541C68.0319 64.0955 68.0777 64.1284 68.1288 64.1505C68.18 64.1725 68.2353 64.1832 68.291 64.1818H71.8534C71.9091 64.1833 71.9645 64.1728 72.0158 64.1508C72.067 64.1289 72.1129 64.0961 72.1503 64.0547C74.271 61.6797 74.4827 56.7181 74.4827 55.2344C74.4825 55.1218 74.4377 55.014 74.3581 54.9345C74.2784 54.855 74.1705 54.8103 74.058 54.8103L66.0857 54.811ZM67.3158 56.1243H72.9137C73.0262 56.1248 73.1338 56.1698 73.2132 56.2493C73.2927 56.3288 73.3374 56.4366 73.3378 56.549C73.3378 57.7365 73.1254 61.0854 71.6837 62.8246C71.5565 62.9092 71.472 62.9524 71.3448 62.9524H68.8427C68.7869 62.9538 68.7315 62.9432 68.6803 62.9211C68.629 62.8991 68.5831 62.8661 68.5459 62.8246C67.1041 61.1286 66.935 57.7365 66.8918 56.549C66.8921 56.4366 66.9369 56.3288 67.0163 56.2493C67.0957 56.1698 67.2034 56.1248 67.3158 56.1243ZM72.6588 59.0079C72.6588 59.0079 72.6169 59.3905 71.5991 59.772C70.1999 60.2805 67.7404 59.9411 67.7404 59.9411C67.9521 60.8317 68.291 61.6797 68.8001 62.316C68.8427 62.4006 68.9693 62.4426 69.0544 62.4426H71.1751C71.2597 62.4426 71.3442 62.4006 71.4294 62.316C72.1503 61.468 72.4897 60.1528 72.6588 59.0079ZM43.739 61.086V61.5532H65.4087C65.4087 61.3835 65.3661 61.2557 65.3661 61.086H43.739ZM74.8221 61.086C74.8221 61.2557 74.7795 61.3835 74.7795 61.5532H97.8052V61.086H74.8221ZM60.8279 65.7081C60.1921 65.7081 59.5978 65.7927 59.0466 66.0476C58.4955 66.2593 58.0289 66.5987 57.6475 66.9802C57.2465 67.3799 56.9292 67.8556 56.7143 68.3793C56.5026 68.9311 56.376 69.4817 56.376 70.0754V70.1186C56.376 70.7117 56.5026 71.3061 56.7143 71.8153C56.9266 72.3664 57.2234 72.8324 57.6049 73.2144C57.9863 73.5959 58.4535 73.9353 59.0047 74.147C59.5723 74.3691 60.1763 74.484 60.7859 74.4859C61.4216 74.4859 62.0147 74.4019 62.5665 74.147C63.1176 73.9353 63.5849 73.5959 63.9663 73.2144C64.3673 72.8147 64.6845 72.3391 64.8995 71.8153C65.1112 71.2635 65.2377 70.7117 65.2377 70.118V70.0754C65.2362 69.4934 65.1213 68.9174 64.8995 68.3793C64.6872 67.8282 64.3903 67.3622 64.0089 66.9802C63.6274 66.5987 63.1602 66.2593 62.6091 66.0476C62.0414 65.8253 61.4375 65.7102 60.8279 65.7081ZM72.5317 65.7081C71.8528 65.7081 71.3023 65.8353 70.7511 66.0476C70.1999 66.2593 69.7327 66.5987 69.3513 66.9802C68.977 67.3925 68.6758 67.8657 68.4607 68.3793C68.2387 68.9173 68.1236 69.4934 68.1219 70.0754V70.1186C68.1219 70.7117 68.2484 71.2635 68.4607 71.8153C68.6724 72.3664 68.9693 72.8324 69.3513 73.2144C69.7327 73.5959 70.1999 73.9353 70.7091 74.147C71.2457 74.3731 71.8224 74.4883 72.4046 74.4859C72.7866 74.4859 73.168 74.4859 73.5495 74.4013C73.8463 74.3593 74.1852 74.2322 74.4401 74.1051C74.6943 73.9773 74.9486 73.8495 75.2029 73.6378C75.4578 73.4255 75.6695 73.2558 75.8818 73.0015L74.9067 72.0263C74.5246 72.3658 74.1432 72.6201 73.8037 72.8324C73.4643 73.0441 72.9989 73.1287 72.4897 73.1287C72.1083 73.1287 71.7256 73.0021 71.3868 72.875C71.0474 72.7478 70.7505 72.4929 70.4962 72.2387C70.2419 71.9418 70.0296 71.6449 69.9025 71.2635C69.7753 70.8808 69.6908 70.4994 69.6908 70.0754V70.034C69.6908 69.652 69.7753 69.27 69.9025 68.8879C70.0722 68.5485 70.2419 68.2102 70.4962 67.956C70.7568 67.6973 71.0575 67.4826 71.3868 67.3202C71.7263 67.1499 72.0657 67.0653 72.4897 67.0653C72.9989 67.0653 73.4217 67.1505 73.8044 67.3622C74.1841 67.5778 74.5396 67.8335 74.8647 68.1251L75.8399 67.0228C75.6275 66.8111 75.4152 66.6413 75.2029 66.4716C74.9912 66.3019 74.7369 66.1747 74.4827 66.0476C74.1864 65.9624 73.9315 65.8779 73.592 65.7933C73.2526 65.7501 72.9131 65.7081 72.5317 65.7081ZM92.4627 65.8353L88.7306 74.3587H90.2575L91.1475 72.3238H95.1333L95.9826 74.3593H97.5503L93.8193 65.8359L92.4627 65.8353ZM44.7987 65.8785V74.4019H46.2831V68.3368L48.9123 72.2806H48.9549L51.6261 68.2954V74.3593H53.1105V65.8772H51.5416L48.9543 69.8643L46.3676 65.8785H44.7987ZM78.8505 65.8785V74.3587H80.3343V70.7969H84.4053V74.3593H85.8896V65.8772H84.4053V69.3971H80.3343V65.8772L78.8505 65.8785ZM60.7859 67.0647C61.2099 67.0647 61.5919 67.1493 61.9308 67.319C62.26 67.4817 62.5608 67.6966 62.8214 67.9553C63.0757 68.2522 63.288 68.5485 63.4151 68.9305C63.5423 69.3119 63.6268 69.6934 63.6268 70.1174V70.1606C63.6268 70.5414 63.5423 70.9234 63.4151 71.3048C63.2454 71.6443 63.0757 71.9838 62.8214 72.238C62.5608 72.4967 62.2601 72.7114 61.9308 72.8738C61.5913 73.0441 61.2099 73.1287 60.7859 73.1287C60.4045 73.1287 59.9798 73.0441 59.6404 72.8744C59.3112 72.7118 59.0107 72.4969 58.7504 72.238C58.4961 71.9412 58.2844 71.6443 58.1573 71.2629C58.0295 70.8802 57.9443 70.4988 57.9443 70.0748V70.0334C57.9443 69.6514 58.0295 69.2693 58.1573 68.8873C58.3264 68.5478 58.4967 68.2096 58.7504 67.9553C59.0107 67.6967 59.3113 67.482 59.6404 67.3196C59.9798 67.1493 60.3625 67.0647 60.7859 67.0647ZM93.1404 67.6159L94.5822 71.008H91.6987L93.1404 67.6159ZM43.739 77.0306V77.4965H97.8052V77.0306H43.739Z" fill="white"/>
</svg>
