<svg width="141" height="141" viewBox="0 0 141 141" fill="none" xmlns="http://www.w3.org/2000/svg">
<rect width="141" height="141" rx="40" fill="#1E2235"/>
<path d="M89.6376 35C89.5311 34.9993 89.4262 35.0262 89.3332 35.0781C89.2362 35.1345 89.1554 35.215 89.0984 35.3117C89.0415 35.4085 89.0104 35.5182 89.0081 35.6304V52.0456C89.0061 52.1264 88.9842 52.2054 88.9442 52.2756C88.9043 52.3458 88.8475 52.4051 88.7791 52.448C88.7098 52.4853 88.6324 52.5048 88.5537 52.5048C88.475 52.5048 88.3975 52.4853 88.3282 52.448L85.6695 50.9105C85.4745 50.7987 85.2535 50.7399 85.0287 50.7399C84.8039 50.7399 84.5829 50.7987 84.3879 50.9105L73.7496 57.0968C73.5525 57.2078 73.3882 57.3689 73.2734 57.5638C73.1585 57.7587 73.0973 57.9805 73.0958 58.2068V70.5533C73.0958 71.0077 73.3481 71.4386 73.7496 71.6658L84.3896 77.853C84.5845 77.9645 84.8051 78.0231 85.0296 78.0231C85.2541 78.0231 85.4747 77.9645 85.6695 77.853L96.3095 71.6658C96.711 71.4386 96.9633 71.0077 96.9633 70.5533V39.7728C96.9633 39.2933 96.711 38.8623 96.3095 38.6369L89.9619 35.0781C89.8614 35.0272 89.7503 35.0005 89.6376 35ZM26.8679 50.4059C26.6684 50.4059 26.4681 50.4804 26.293 50.5793L15.653 56.7439C15.4532 56.8579 15.2874 57.0231 15.1726 57.2224C15.0579 57.4218 14.9983 57.6481 15 57.8781L15.0261 74.4416C15.0261 74.6697 15.1492 74.8977 15.3504 74.9992C15.4436 75.061 15.5529 75.0939 15.6647 75.0939C15.7765 75.0939 15.8859 75.061 15.9791 74.9992L22.3049 71.3632C22.5017 71.2516 22.6655 71.0901 22.7797 70.8948C22.8939 70.6996 22.9545 70.4777 22.9553 70.2515V62.5C22.9553 62.0456 23.2068 61.6147 23.6091 61.3875L26.293 59.8223C26.4891 59.7026 26.7154 59.6416 26.9451 59.6462C27.1705 59.6462 27.3977 59.6957 27.5738 59.8223L30.2585 61.3875C30.6599 61.6147 30.9123 62.0456 30.9123 62.5V70.2524C30.9123 70.705 31.162 71.1369 31.5627 71.3623L37.8374 74.9992C37.9349 75.0608 38.048 75.0935 38.1634 75.0935C38.2788 75.0935 38.3919 75.0608 38.4895 74.9992C38.5894 74.9446 38.6726 74.8639 38.7302 74.7657C38.7878 74.6675 38.8176 74.5554 38.8164 74.4416V57.8781C38.8164 57.4237 38.5649 56.9936 38.1626 56.7655L27.5477 50.5793C27.3692 50.4836 27.1735 50.4244 26.9719 50.405H26.867L26.8679 50.4059ZM114.164 50.5854V50.5871L114.162 50.5888C113.943 50.5888 113.725 50.6452 113.523 50.7597L102.882 56.9424C102.481 57.1714 102.232 57.6006 102.232 58.0559V70.4041C102.232 70.8585 102.481 71.2886 102.882 71.515L113.447 77.5755C113.637 77.6872 113.854 77.7462 114.075 77.7462C114.296 77.7462 114.512 77.6872 114.703 77.5755L121.102 73.9915C121.202 73.9367 121.285 73.8559 121.342 73.7577C121.399 73.6595 121.429 73.5476 121.427 73.434C121.428 73.3207 121.399 73.2094 121.341 73.1117C121.284 73.014 121.201 72.9336 121.102 72.879L110.413 66.691C110.315 66.6336 110.234 66.5519 110.177 66.454C110.12 66.356 110.089 66.245 110.088 66.1317V62.2685C110.087 62.1555 110.116 62.0443 110.174 61.9469C110.231 61.8495 110.314 61.7694 110.413 61.7153L113.755 59.7962C113.852 59.7347 113.966 59.702 114.081 59.702C114.196 59.702 114.309 59.7347 114.407 59.7962L117.741 61.7153C117.838 61.772 117.919 61.8526 117.976 61.9495C118.034 62.0463 118.065 62.1561 118.068 62.2685V65.2983C118.068 65.5264 118.193 65.7536 118.393 65.8542C118.491 65.9162 118.604 65.9491 118.72 65.9491C118.836 65.9491 118.949 65.9162 119.047 65.8542L125.369 62.1428C125.563 62.0302 125.724 61.8681 125.835 61.6731C125.946 61.478 126.003 61.2571 126 61.0328V58.0281C126 57.5737 125.747 57.1445 125.369 56.9164L114.807 50.7588C114.612 50.646 114.39 50.586 114.165 50.5845L114.164 50.5854ZM56.0276 50.6278C55.82 50.6283 55.6162 50.683 55.4362 50.7865L44.883 56.9147L48.5753 63.6872L56.1525 50.64C56.1113 50.6347 56.07 50.631 56.0285 50.6287H56.0268L56.0276 50.6278ZM56.5184 50.7562L63.982 63.6022L67.4897 57.1462C67.4246 57.0797 67.3518 57.0211 67.2729 56.9719L61.835 53.8129L56.6 50.7883C56.5739 50.7753 56.5453 50.7666 56.5184 50.7562ZM56.3017 50.8082L48.6933 63.9057L56.2392 77.7498C56.26 77.7454 56.2808 77.7437 56.3017 77.7376L63.8624 63.8224L56.3008 50.8091L56.3017 50.8082ZM44.7017 57.0274C44.5455 57.1368 44.4183 57.2827 44.3312 57.4524C44.2442 57.6221 44.1999 57.8105 44.2023 58.0012V70.4024C44.2023 70.6001 44.256 70.7926 44.348 70.9634L48.4478 63.9022L44.7017 57.0274ZM67.6379 57.324L64.1078 63.819L67.8521 70.2654V58.0012C67.8521 57.7584 67.7723 57.5217 67.6371 57.3249L67.6379 57.324ZM85.0296 59.8084C85.0859 59.8084 85.1423 59.8214 85.1943 59.8474L88.8303 61.9702C88.9309 62.0205 88.982 62.1445 88.982 62.246V66.4889C88.982 66.6155 88.93 66.7179 88.8303 66.7682L85.1917 68.8883C85.1408 68.9131 85.0849 68.926 85.0283 68.926C84.9716 68.926 84.9157 68.9131 84.8648 68.8883L81.2271 66.7699C81.1265 66.7196 81.0745 66.5921 81.0745 66.4907V62.2477C81.0745 62.1211 81.1274 62.0214 81.2271 61.9702L84.8648 59.8474C84.9159 59.8218 84.9724 59.8084 85.0296 59.8084ZM114.127 61.5253C114.082 61.5258 114.038 61.5397 114.001 61.5652L111.967 62.7524C111.929 62.7761 111.897 62.8093 111.875 62.8488C111.854 62.8884 111.843 62.9328 111.844 62.9778V65.3538C111.844 65.4544 111.891 65.5307 111.967 65.581L114.001 66.7682C114.038 66.7927 114.082 66.8058 114.126 66.8058C114.171 66.8058 114.215 66.7927 114.252 66.7682L116.284 65.5802C116.323 65.5561 116.354 65.5227 116.376 65.4831C116.398 65.4435 116.409 65.399 116.409 65.3538V62.9796C116.41 62.9344 116.398 62.89 116.376 62.8505C116.354 62.811 116.323 62.7778 116.284 62.7541L114.252 61.5652C114.215 61.5408 114.171 61.5278 114.127 61.528V61.5262V61.5253ZM63.989 64.0401L56.6078 77.624L56.6199 77.618L67.2746 71.4291C67.572 71.2609 67.7628 70.973 67.827 70.6461L63.989 64.0401ZM48.5684 64.1225L44.4798 71.1612C44.5665 71.2678 44.6679 71.3606 44.7833 71.43L55.3226 77.5538L55.4354 77.6188H55.438C55.5201 77.6654 55.6074 77.7021 55.6981 77.7281C55.725 77.7368 55.7519 77.7411 55.7779 77.7472C55.8299 77.7584 55.8802 77.7663 55.9322 77.7706C55.9574 77.7732 55.9817 77.7723 56.0068 77.7723L48.5684 64.1225ZM69.8223 75.7362C69.452 75.7362 69.0826 75.823 68.7687 75.9999L58.7531 81.8358C58.4316 82.024 58.165 82.2931 57.98 82.6165C57.795 82.9398 57.698 83.306 57.6986 83.6785V95.3157C57.6986 96.0736 58.1001 96.7803 58.7522 97.1601L61.3892 98.6742C62.6683 99.3055 63.1192 99.302 63.6959 99.302C65.5776 99.302 66.6581 98.1417 66.6581 96.1473V84.6636C66.6572 84.5839 66.6256 84.5077 66.5698 84.4508C66.5141 84.3939 66.4385 84.3608 66.3589 84.3583H65.0798C64.9992 84.3593 64.9221 84.3917 64.865 84.4487C64.808 84.5058 64.7755 84.5829 64.7746 84.6636V96.1516C64.7746 97.0353 63.8502 97.9198 62.37 97.1627L59.6333 95.5724C59.5327 95.5221 59.4824 95.3929 59.4824 95.2923V83.6508C59.4824 83.5502 59.5327 83.4227 59.6333 83.3733L69.6445 77.5668C69.72 77.5165 69.8457 77.5165 69.948 77.5668L79.9585 83.3724C80.0582 83.4244 80.1111 83.525 80.1111 83.6499V95.2905C80.1111 95.4163 80.059 95.5203 79.9585 95.5706L69.9454 101.403C69.87 101.453 69.7443 101.453 69.6419 101.403L67.0847 99.8622C67.0084 99.8119 66.9078 99.7876 66.8332 99.8362C66.1308 100.242 66.0068 100.294 65.3287 100.521C65.1778 100.572 64.9272 100.67 65.4284 100.948L68.7687 102.945C69.0948 103.121 69.4451 103.221 69.8223 103.221C70.1986 103.221 70.5733 103.121 70.8742 102.995L80.8863 97.1627C81.2079 96.9737 81.4744 96.7037 81.6593 96.3797C81.8442 96.0556 81.9409 95.6888 81.9399 95.3157V83.6785C81.9399 82.9206 81.5384 82.2165 80.8863 81.8375L70.8742 76.0016C70.5518 75.8253 70.1897 75.7334 69.8223 75.7362ZM85.4545 81.051C84.9404 81.0531 84.4481 81.2592 84.086 81.6241C83.7239 81.989 83.5215 82.4828 83.5233 82.9969C83.5219 83.5107 83.7245 84.0041 84.0866 84.3686C84.4487 84.7331 84.9407 84.939 85.4545 84.9411C86.5098 84.9411 87.3882 84.0566 87.3882 82.9969C87.3857 82.4838 87.1816 81.9922 86.8198 81.6283C86.458 81.2644 85.9676 81.0574 85.4545 81.0519V81.051ZM85.4284 81.3771H85.431C85.6451 81.3744 85.8576 81.4144 86.056 81.4947C86.2545 81.575 86.4349 81.694 86.5869 81.8448C86.7389 81.9956 86.8594 82.1751 86.9413 82.3729C87.0231 82.5707 87.0648 82.7828 87.0639 82.9969C87.0639 83.8814 86.3346 84.6358 85.431 84.6358C84.5535 84.6358 83.8233 83.9057 83.8233 82.9969C83.8233 82.0881 84.5769 81.3788 85.4284 81.3771ZM84.7261 81.9095V84.1294H85.1544V83.251H85.5342C85.6851 83.251 85.7337 83.3013 85.7597 83.427C85.7597 83.453 85.8343 84.0072 85.8343 84.1077H86.2852C86.2332 84.0072 86.2097 83.7019 86.1846 83.525C86.1603 83.2475 86.136 83.0472 85.8343 83.0221C85.9852 82.9709 86.2332 82.8963 86.2332 82.4922C86.2332 81.9112 85.7302 81.9112 85.4796 81.9112L84.7261 81.9095ZM85.1059 82.2633H85.4545C85.5811 82.2633 85.7831 82.2633 85.7831 82.5668C85.7831 82.6674 85.732 82.8703 85.4545 82.8703H85.1059V82.2633ZM72.559 84.0063C69.6974 84.0063 67.9874 85.2194 67.9874 87.265C67.9874 89.4624 69.6948 90.0642 72.4307 90.3417C75.7172 90.6712 75.9687 91.1525 75.9687 91.8089C75.9687 92.9449 75.0651 93.4227 72.9571 93.4227C70.2966 93.4227 69.7182 92.7663 69.5171 91.4291C69.5171 91.2765 69.3957 91.1776 69.2448 91.1776H67.9397C67.8592 91.1776 67.782 91.2096 67.7251 91.2665C67.6682 91.3235 67.6362 91.4006 67.6362 91.4811C67.6362 93.1981 68.5415 95.216 72.9345 95.216C76.0953 95.216 77.925 93.9534 77.925 91.73C77.925 89.5595 76.4682 88.9777 73.3828 88.5736C70.2698 88.1695 69.9446 87.9423 69.9446 87.2104C69.9446 86.6043 70.2221 85.7978 72.5287 85.7978C74.5882 85.7978 75.366 86.2522 75.6678 87.6405C75.6821 87.7034 75.7167 87.7598 75.7662 87.8012C75.8157 87.8425 75.8774 87.8665 75.9418 87.8695H77.272C77.3474 87.8695 77.4255 87.82 77.4767 87.7697C77.5237 87.7025 77.5497 87.6228 77.5512 87.5408C77.3509 85.1171 75.7718 84.0063 72.559 84.0063Z" fill="#5FA04E"/>
</svg>
