<svg width="141" height="141" viewBox="0 0 141 141" fill="none" xmlns="http://www.w3.org/2000/svg">
<rect width="141" height="141" rx="40" fill="#1E2235"/>
<path d="M45.2441 31H97.1919C105.068 31 111.436 37.3676 111.436 45.2441V95.181C111.436 103.057 105.068 109.425 97.1919 109.425H45.2441C37.3676 109.425 31 103.057 31 95.181V45.2441C31 37.3676 37.3676 31 45.2441 31Z" fill="#001E36"/>
<path d="M59.8233 50.9412C58.8178 50.9412 57.8124 50.9412 56.7736 50.9751C55.7342 51.0084 54.7621 51.0084 53.8572 51.0423C52.9523 51.0756 52.1146 51.0756 51.3103 51.1089C50.5392 51.1423 50.0032 51.1423 49.4332 51.1423C49.1988 51.1423 49.0983 51.2761 49.0983 51.5111V85.9981C49.0983 86.2997 49.2321 86.4342 49.5004 86.4342H56.0026C56.237 86.4002 56.4047 86.1991 56.3708 85.9648V75.2064C57.0074 75.2064 57.4768 75.2064 57.8124 75.2397C58.1473 75.273 58.6833 75.273 59.4877 75.273C62.2364 75.273 64.75 74.9714 67.0286 74.1337C69.2073 73.3294 71.0843 71.9218 72.4247 70.0447C73.7651 68.1683 74.4356 65.7885 74.4356 62.906C74.4356 61.3978 74.1679 59.9569 73.6652 58.5493C73.1328 57.115 72.2983 55.812 71.2182 54.7286C69.9437 53.4904 68.4095 52.5514 66.7269 51.9799C64.8499 51.2761 62.5713 50.9412 59.8233 50.9412ZM60.5711 57.5426C61.765 57.5652 62.9276 57.7738 64.0122 58.2137C64.9844 58.5826 65.7887 59.2531 66.3587 60.1241C66.8939 61.0252 67.1614 62.0601 67.1298 63.1077C67.1298 64.582 66.7942 65.7219 66.0904 66.5596C65.3526 67.3972 64.4144 68.0344 63.3423 68.3361C62.1019 68.7383 60.7948 68.9387 59.4877 68.9387H57.7112C57.309 68.9387 56.8742 68.9054 56.4047 68.8721V57.6111C56.6391 57.5771 57.1086 57.5438 57.7791 57.5778C58.4156 57.5438 59.1861 57.5438 60.0577 57.5438C60.2292 57.5394 60.4008 57.5388 60.5711 57.5426ZM88.6797 59.2537C86.2999 59.2537 84.3223 59.622 82.7475 60.4263C81.3066 61.0968 80.0661 62.1689 79.2285 63.5093C78.4913 64.7498 78.0885 66.1235 78.0885 67.565C78.0598 68.7507 78.3247 69.925 78.8596 70.9835C79.4865 72.1106 80.3568 73.0837 81.4071 73.8321C82.8816 74.8403 84.4814 75.6515 86.1661 76.2452C87.8081 76.8818 88.9141 77.3845 89.4507 77.82C89.9868 78.2561 90.2551 78.6916 90.2551 79.161C90.2551 79.7643 89.8862 80.3342 89.3502 80.5686C88.7469 80.8703 87.842 81.038 86.5682 81.038C85.2278 81.038 83.8868 80.8703 82.6131 80.5353C81.1506 80.2083 79.7484 79.6543 78.4574 78.8933C78.3569 78.8261 78.2563 78.7928 78.1558 78.86C78.0552 78.9266 78.0219 79.0605 78.0219 79.161V84.9926C77.9886 85.2609 78.1558 85.4953 78.3908 85.6292C79.4776 86.137 80.6272 86.4977 81.8093 86.7019C83.3175 87.0035 84.825 87.1374 86.3665 87.1374C88.7796 87.1374 90.7911 86.7691 92.4332 86.0653C93.9413 85.462 95.2484 84.4233 96.1866 83.0823C97.065 81.7638 97.5209 80.209 97.4937 78.625C97.5264 77.4283 97.2617 76.2423 96.7233 75.1731C96.0861 74.0332 95.1812 73.095 94.0752 72.3912C92.4571 71.3752 90.7248 70.5539 88.9141 69.9442C88.1054 69.6096 87.3114 69.2406 86.5343 68.8382C86.0988 68.6038 85.6966 68.3021 85.395 67.9333C85.1939 67.6649 85.0601 67.3639 85.0601 67.0623C85.0601 66.7607 85.1606 66.4257 85.3278 66.1574C85.5628 65.8224 85.931 65.5874 86.3665 65.4869C87.0037 65.3197 87.7075 65.2185 88.3774 65.2519C89.6512 65.2519 90.891 65.4196 92.1315 65.688C93.2714 65.9224 94.3435 66.2912 95.349 66.8279C95.4828 66.8945 95.6506 66.8945 95.9522 66.8279C96.0047 66.7892 96.0473 66.7386 96.0765 66.6803C96.1057 66.622 96.1206 66.5575 96.12 66.4923V61.0296C96.12 60.8951 96.0861 60.7613 96.0528 60.6274C95.9855 60.4936 95.8517 60.3591 95.7178 60.3258C94.7935 59.9477 93.8249 59.6886 92.8353 59.5547C91.4592 59.3543 90.0704 59.2541 88.6797 59.2537Z" fill="#31A8FF"/>
</svg>
