<svg width="141" height="141" viewBox="0 0 141 141" fill="none" xmlns="http://www.w3.org/2000/svg">
<rect width="141" height="141" rx="40" fill="#1E2235"/>
<path d="M32.7453 59.0237C32.7453 59.0237 30.8374 57.6484 33.1269 55.8121L38.461 51.0423C38.461 51.0423 39.9874 49.4365 41.6011 50.8356L90.8251 88.1034V105.974C90.8251 105.974 90.8013 108.78 87.2001 108.47L32.7453 59.0237Z" fill="#2489CA"/>
<path d="M45.4329 70.5432L32.7453 82.0781C32.7453 82.0781 31.4415 83.0479 32.7453 84.781L38.6359 90.139C38.6359 90.139 40.0351 91.6415 42.102 89.9323L55.5527 79.733L45.4329 70.5432Z" fill="#1070B3"/>
<path d="M67.7078 70.6383L90.9763 52.8708L90.8253 35.0955C90.8253 35.0955 89.8316 31.216 86.5166 33.2352L55.5528 61.4167L67.7078 70.6383Z" fill="#0877B9"/>
<path d="M87.2003 108.494C88.5517 109.878 90.1893 109.424 90.1893 109.424L108.322 100.489C110.644 98.9071 110.318 96.9435 110.318 96.9435V43.5857C110.318 41.2405 107.917 40.4297 107.917 40.4297L92.2006 32.8537C88.7663 30.7311 86.5166 33.2352 86.5166 33.2352C86.5166 33.2352 89.4103 31.1524 90.8253 35.0955V105.648C90.8253 106.133 90.7219 106.61 90.5153 107.04C90.1019 107.874 89.2036 108.653 87.0492 108.327L87.2003 108.494Z" fill="#3C99D4"/>
</svg>
