<svg width="141" height="141" viewBox="0 0 141 141" fill="none" xmlns="http://www.w3.org/2000/svg">
<rect width="141" height="141" rx="40" fill="#1E2235"/>
<path d="M31.0111 78.3896H28.6535V86.8702H35.1074V84.8144H31.0111V78.3896ZM42.1211 78.2087C39.5063 78.2087 37.5413 80.1891 37.5413 82.6222V82.6522C37.5413 85.0861 39.4763 87.0357 42.0911 87.0357C44.7059 87.0357 46.6709 85.0553 46.6709 82.6222V82.5922C46.6709 80.1583 44.7359 78.2087 42.1211 78.2087ZM44.2824 82.6522C44.2824 83.8765 43.4208 84.9198 42.1211 84.9198C40.836 84.9198 39.9598 83.8619 39.9598 82.6376V82.6076C39.9598 81.3834 40.8214 80.34 42.1065 80.34C43.4062 80.34 44.2832 81.398 44.2832 82.6222L44.2824 82.6522ZM55.0597 83.1666C55.0597 84.3454 54.4399 84.9052 53.5028 84.9052C52.5658 84.9052 51.9459 84.3308 51.9459 83.1066V78.3905H49.5574V83.152C49.5574 85.8123 51.0689 87.022 53.472 87.022C55.8904 87.022 57.4473 85.8277 57.4473 83.092V78.3914H55.0588L55.0597 83.1666ZM64.311 78.3896H61.0463V86.8694H64.2656C67.3193 86.8694 69.1025 85.0553 69.1025 82.6068V82.5768C69.1025 80.1283 67.3339 78.3896 64.311 78.3896ZM66.6986 82.6376C66.6986 84.0128 65.7616 84.7844 64.3556 84.7844V84.7689H63.4031V80.4609H64.3556C65.7616 80.4609 66.6986 81.2471 66.6986 82.6076V82.6376ZM72.5181 86.8702H74.8611V83.8465H78.882V81.8969H74.8611V80.4455H79.3055V78.3896H72.5181V86.8702ZM84.9132 78.3896H82.5701V86.8702H89.0249V84.8144H84.9132V78.3896ZM95.1615 78.3296L91.5642 86.8702H94.0282L94.6326 85.3588H97.8972L98.5171 86.8702H101.041L97.4283 78.3296H95.1615ZM95.3424 83.5292L96.2949 81.1262L97.232 83.5292H95.3424ZM111.592 81.3225V81.2925C111.592 80.4463 111.335 79.7965 110.836 79.3121C110.261 78.7223 109.37 78.3896 108.069 78.3896H104.064V86.8848H106.422V84.3154H107.449L109.157 86.8848H111.878L109.853 83.9219C110.897 83.4838 111.592 82.6222 111.592 81.3225ZM109.219 81.4588C109.219 82.0632 108.765 82.4567 107.965 82.4567H106.408V80.4309H107.949C108.735 80.4309 109.219 80.7635 109.219 81.4288V81.4588ZM117.305 84.8744V83.5292H121.371V81.6697H117.305V80.3855H121.795V78.3896H114.978V86.8702H121.855V84.8744H117.305ZM21.5644 80.34C22.5314 80.34 23.2721 80.9299 23.5748 81.746H26.0541C25.6615 79.7202 23.8774 78.2242 21.5798 78.2242C18.965 78.2242 17 80.2046 17 82.6376V82.6676C17 85.1016 18.935 87.0511 21.5498 87.0511C23.7865 87.0511 25.5406 85.5997 25.9941 83.6656L23.5156 83.6501C23.183 84.3908 22.4877 84.9198 21.5806 84.9198C20.2955 84.9198 19.4193 83.8465 19.4193 82.6376V82.6076C19.4176 81.3825 20.2792 80.34 21.5644 80.34Z" fill="white"/>
<path d="M119.014 64.8622L112.529 61.1432L111.41 60.6597L84.8832 60.8414V74.309H119.014V64.8622Z" fill="white"/>
<path d="M107.209 73.069C107.526 71.9811 107.405 70.9832 106.876 70.2425C106.392 69.5626 105.576 69.1691 104.594 69.1237L85.9865 68.8819C85.93 68.8821 85.8742 68.8685 85.8242 68.8422C85.7741 68.8159 85.7312 68.7777 85.6993 68.731C85.6691 68.6818 85.6494 68.6267 85.6416 68.5695C85.6338 68.5122 85.638 68.4539 85.6539 68.3984C85.6876 68.3069 85.7467 68.227 85.8244 68.1681C85.902 68.1091 85.9948 68.0736 86.092 68.0657L104.865 67.824C107.088 67.7185 109.506 65.919 110.352 63.7123L111.426 60.9157C111.473 60.8009 111.484 60.6741 111.456 60.5531C110.851 57.8414 109.34 55.4168 107.172 53.6799C105.004 51.9431 102.308 50.9977 99.5296 51C94.1482 51 89.5838 54.4764 87.9515 59.2988C86.8446 58.4747 85.4706 58.0921 84.097 58.2255C82.8383 58.3548 81.6626 58.914 80.7678 59.8087C79.8731 60.7034 79.314 61.8792 79.1846 63.1379C79.1218 63.7808 79.1678 64.4298 79.3209 65.0574C77.2875 65.1153 75.3569 65.9642 73.9398 67.4235C72.5227 68.8829 71.7309 70.8376 71.7328 72.8719C71.7328 73.2499 71.7628 73.628 71.8082 74.0052C71.8382 74.187 71.99 74.3224 72.1709 74.3224H106.513C106.612 74.3205 106.708 74.2872 106.786 74.2274C106.865 74.1676 106.923 74.0845 106.951 73.9898L107.209 73.069Z" fill="#F38020"/>
<path d="M113.133 61.113C112.967 61.113 112.785 61.113 112.62 61.1285C112.499 61.1285 112.394 61.2193 112.348 61.3402L111.623 63.8642C111.306 64.9521 111.426 65.95 111.955 66.6907C112.439 67.3706 113.255 67.7641 114.238 67.8095L118.198 68.0513C118.318 68.0513 118.424 68.1122 118.485 68.2022C118.515 68.2516 118.534 68.3066 118.542 68.3638C118.55 68.421 118.546 68.4792 118.53 68.5348C118.497 68.6263 118.437 68.7062 118.36 68.7651C118.282 68.8241 118.189 68.8596 118.092 68.8675L113.966 69.1092C111.729 69.2147 109.325 71.0142 108.479 73.2209L108.176 73.9916C108.116 74.1425 108.222 74.2943 108.388 74.2943H122.566C122.733 74.2943 122.884 74.1888 122.929 74.0225C123.171 73.1455 123.307 72.2239 123.307 71.2714C123.306 65.6782 118.741 61.113 113.133 61.113Z" fill="#FAAE40"/>
</svg>
