<svg width="141" height="141" viewBox="0 0 141 141" fill="none" xmlns="http://www.w3.org/2000/svg">
<rect width="141" height="141" rx="40" fill="#1E2235"/>
<rect x="31" y="31" width="79" height="79" rx="39.5" fill="white"/>
<path d="M58.8105 62.3499C62.0086 62.3499 64.6077 64.0575 65.94 67.0225L66.0401 67.2562L71.4039 65.4324L71.2957 65.1573C69.2215 60.0927 64.4327 56.9534 58.8105 56.9534C54.8539 56.9534 51.6391 58.2189 48.9825 60.826C46.3421 63.4163 45.0092 66.6732 45.0092 70.5044C45.0092 74.3108 46.3507 77.5503 48.9825 80.1327C51.6391 82.7398 54.8545 84.0053 58.8105 84.0053C64.4327 84.0053 69.2135 80.8572 71.2957 75.8014L71.4039 75.5269L66.0315 73.7031L65.94 73.9442C64.7406 76.8678 62.0754 78.6081 58.8105 78.6081C56.5868 78.6081 54.7042 77.8335 53.2217 76.3009C51.7139 74.7522 50.9559 72.7949 50.9559 70.5044C50.9559 68.1971 51.6978 66.2818 53.2217 64.6571C54.7123 63.1245 56.5868 62.3499 58.8105 62.3499Z" fill="black"/>
<path d="M82.098 108.293L80.4993 103.02C94.9251 98.6395 104.62 85.5713 104.62 70.5044C104.62 66.3481 103.878 62.2838 102.412 58.4353L107.56 56.478C109.268 60.9596 110.141 65.7163 110.134 70.5125C110.125 88.0115 98.8644 103.195 82.098 108.293Z" fill="url(#paint0_linear_52_443)"/>
<path d="M103.129 60.5428C98.7229 46.167 85.6381 36.5134 70.5625 36.5134C68.5184 36.5137 66.4783 36.6949 64.4662 37.0549L63.4912 31.6331C65.825 31.2133 68.1913 31.0015 70.5625 31C88.0702 31 103.271 42.219 108.393 58.9187L103.129 60.5428Z" fill="#69D3A7"/>
<path d="M33.5323 84.4301C31.8494 79.9825 31 75.2933 31 70.5045C31 50.0985 46.3173 33.1986 66.6311 31.1992L67.1727 36.6798C49.6903 38.4047 36.5053 52.9467 36.5053 70.5038C36.5001 74.5975 37.2366 78.6583 38.679 82.4895L33.5323 84.4301Z" fill="url(#paint1_linear_52_443)"/>
<path d="M70.7708 57.453L81.5651 83.8725L73.7024 102.945L79.2077 104.045L98.3481 57.4524H92.4008L84.7638 76.8092L77.0674 57.4524L70.7708 57.453Z" fill="black"/>
<path d="M74.6934 100.547L73.5361 103.353C73.2696 103.995 72.6613 104.436 71.9781 104.461C71.504 104.478 71.0372 104.495 70.5544 104.495C55.4374 104.495 41.9773 94.3747 37.8215 79.8828L32.5239 81.3981C37.3548 98.2313 52.9886 109.991 70.5457 110H70.5544C71.104 110 71.6536 109.992 72.2032 109.967C75.0266 109.85 77.5509 108.076 78.6328 105.452L80.1994 101.646L74.6934 100.547Z" fill="url(#paint2_linear_52_443)"/>
<defs>
<linearGradient id="paint0_linear_52_443" x1="113.163" y1="70.7538" x2="77.8385" y2="93.6248" gradientUnits="userSpaceOnUse">
<stop offset="0.081" stop-color="#69D3A7"/>
<stop offset="1" stop-color="#69D3A7" stop-opacity="0"/>
</linearGradient>
<linearGradient id="paint1_linear_52_443" x1="57.3924" y1="31.4997" x2="35.2005" y2="78.5663" gradientUnits="userSpaceOnUse">
<stop stop-color="#69D3A7"/>
<stop offset="0.823" stop-color="#2AB586"/>
<stop offset="1" stop-color="#1CAE7F"/>
</linearGradient>
<linearGradient id="paint2_linear_52_443" x1="30.9438" y1="88.5894" x2="89.1343" y2="106.852" gradientUnits="userSpaceOnUse">
<stop offset="0.077" stop-color="#1CAE7F"/>
<stop offset="0.164" stop-color="#1CA379"/>
<stop offset="0.316" stop-color="#1C8568"/>
<stop offset="0.516" stop-color="#1B554D"/>
<stop offset="0.719" stop-color="#1B1E2E"/>
</linearGradient>
</defs>
</svg>
