<svg width="141" height="141" viewBox="0 0 141 141" fill="none" xmlns="http://www.w3.org/2000/svg">
<rect width="141" height="141" rx="40" fill="#1E2235"/>
<path d="M58.0556 109.333C65.2622 109.333 71.1111 103.484 71.1111 96.2777V83.2222H58.0556C50.8489 83.2222 45 89.071 45 96.2777C45 103.484 50.8489 109.333 58.0556 109.333Z" fill="#0ACF83"/>
<path d="M45 70.1666C45 62.96 50.8489 57.1111 58.0556 57.1111H71.1111V83.2221H58.0556C50.8489 83.2221 45 77.3733 45 70.1666Z" fill="#A259FF"/>
<path d="M45 44.0555C45 36.8489 50.8489 31 58.0556 31H71.1111V57.1111H58.0556C50.8489 57.1111 45 51.2622 45 44.0555Z" fill="#F24E1E"/>
<path d="M71.1111 31H84.1667C91.3733 31 97.2222 36.8489 97.2222 44.0555C97.2222 51.2622 91.3733 57.1111 84.1667 57.1111H71.1111V31Z" fill="#FF7262"/>
<path d="M97.2222 70.1666C97.2222 77.3733 91.3733 83.2221 84.1667 83.2221C76.96 83.2221 71.1111 77.3733 71.1111 70.1666C71.1111 62.96 76.96 57.1111 84.1667 57.1111C91.3733 57.1111 97.2222 62.96 97.2222 70.1666Z" fill="#1ABCFE"/>
</svg>
