<svg width="141" height="141" viewBox="0 0 141 141" fill="none" xmlns="http://www.w3.org/2000/svg">
<rect width="141" height="141" rx="40" fill="#1E2235"/>
<path d="M107.856 67.6765L73.6549 33.4772C71.6865 31.5076 68.492 31.5076 66.5211 33.4772L59.4191 40.5793L68.4283 49.5885C70.5219 48.8811 72.9227 49.3557 74.5916 51.0245C76.2684 52.7041 76.7396 55.1254 76.015 57.2257L84.6975 65.9085C86.7981 65.1848 89.2219 65.653 90.8996 67.3335C93.2444 69.6773 93.2444 73.4762 90.8996 75.8216C88.5542 78.1673 84.7553 78.1673 82.4087 75.8216C80.645 74.056 80.2092 71.4658 81.1021 69.293L73.005 61.1959L73.0041 82.5041C73.5911 82.7943 74.1272 83.1777 74.5916 83.6393C76.9364 85.9832 76.9364 89.7824 74.5916 92.1296C72.2462 94.4741 68.4455 94.4741 66.1034 92.1296C63.7586 89.7824 63.7586 85.9835 66.1034 83.6396C66.6653 83.0774 67.3331 82.6322 68.0682 82.3297V60.8229C67.3321 60.5224 66.6639 60.0769 66.1034 59.513C64.3269 57.7388 63.8997 55.1321 64.81 52.9507L55.929 44.0688L32.4779 67.5183C30.5074 69.4898 30.5074 72.6846 32.4779 74.6546L66.6796 108.854C68.6486 110.824 71.8426 110.824 73.8141 108.854L107.856 74.8134C109.826 72.8428 109.826 69.6461 107.856 67.6765" fill="#EF4444"/>
</svg>
