<svg width="141" height="141" viewBox="0 0 141 141" fill="none" xmlns="http://www.w3.org/2000/svg">
<rect width="141" height="141" rx="40" fill="#1E2235"/>
<path d="M107.759 69.9047C107.759 65.1476 104.155 61.1444 99.3158 60.0021L110.153 31H56.4468L67.3086 60.0937C62.622 61.3281 59.1673 65.2614 59.1673 69.9289C59.1673 73.3588 61.0585 76.4003 63.9312 78.2754C62.7982 79.7393 61.4865 81.0894 60.0004 82.3696C57.2031 84.7494 54.101 86.5781 50.7502 87.7909C47.726 85.938 46.4161 82.667 47.5999 79.7387C52.2116 78.4585 55.5655 74.5474 55.5655 69.9505C55.5655 64.3022 50.4991 59.7263 44.2973 59.7263C38.072 59.7263 33.0088 64.3239 33.0088 69.974C33.0088 72.7651 34.2673 75.3254 36.2847 77.1542C36.1078 77.4758 35.9322 77.7943 35.7553 78.1375C34.067 81.2953 32.151 84.8632 31.4188 88.8664C29.9574 96.8697 32.3514 103.298 38.1228 106.934C41.3746 108.971 44.9548 110 48.8108 110C55.4368 110 62.1674 106.98 68.6685 104.052C73.3069 101.972 78.0949 99.7975 82.8081 98.7467C84.5478 98.3577 86.3617 98.1283 88.2777 97.8772C92.1572 97.3744 96.1654 96.8481 99.7697 94.9494C103.978 92.7317 106.851 89.0253 107.684 84.7716C108.312 81.5 107.684 78.2074 106.07 75.3254C107.172 73.7331 107.762 71.8416 107.759 69.9047ZM102.845 69.9047C102.845 73.0836 99.9967 75.6687 96.4938 75.6687C92.9909 75.6687 90.1423 73.0836 90.1423 69.9047C90.1423 68.875 90.4447 67.8923 90.9735 67.0463C91.1745 66.7247 91.4281 66.4062 91.6785 66.131C91.944 65.8479 92.24 65.5951 92.5611 65.3771L92.5877 65.353C92.788 65.2157 93.015 65.0778 93.242 64.9423C93.242 64.9423 93.2667 64.9423 93.2667 64.9182C93.3675 64.8724 93.469 64.8044 93.571 64.7586C93.5951 64.7586 93.6192 64.7345 93.6452 64.7345C93.7473 64.6912 93.8728 64.6455 93.9977 64.5991C94.117 64.5574 94.2348 64.5116 94.3509 64.4618C94.3756 64.4618 94.4016 64.437 94.4257 64.437C94.5271 64.416 94.6285 64.3696 94.7281 64.348C94.7547 64.348 94.8054 64.3239 94.8295 64.3239C94.9551 64.3022 95.0565 64.2781 95.1821 64.2558H95.2086L95.5859 64.1859C95.6119 64.1859 95.6601 64.1859 95.6867 64.1643C95.7881 64.1643 95.8877 64.1402 95.9891 64.1402H96.1147C96.2402 64.1402 96.3682 64.1185 96.5179 64.1185H96.8463C96.9453 64.1185 97.0232 64.1185 97.1221 64.1402H97.1728C97.3757 64.1649 97.5761 64.1859 97.7789 64.2323C100.652 64.7803 102.845 67.1143 102.845 69.9047ZM63.4767 35.5734H103.12L94.0225 59.9323C93.6452 60.0021 93.2661 60.1153 92.8895 60.2291L83.3134 42.5044L73.7101 60.1147C73.331 60.0015 72.9278 59.9316 72.5264 59.8636L63.4767 35.5734ZM81.4964 67.9133C81.0183 65.763 79.808 63.8427 78.0949 62.4246L83.3134 52.8652L88.5795 62.6299C87.0167 64.048 85.8831 65.8551 85.4291 67.9133H81.4964ZM68.8714 64.3016C68.9969 64.2769 69.0984 64.2558 69.2239 64.2317H69.2987C69.4002 64.2101 69.5022 64.2101 69.6012 64.1853H69.7026C69.804 64.1853 69.8788 64.1637 69.9803 64.1637H70.9636C71.0626 64.1637 71.1399 64.1853 71.2147 64.1853C71.2654 64.1853 71.2895 64.1853 71.3402 64.2101C71.4417 64.2317 71.5165 64.2317 71.6185 64.2558C71.642 64.2558 71.6686 64.2558 71.7194 64.2775C71.8455 64.3016 71.9711 64.3232 72.0719 64.3474H72.0966C72.198 64.369 72.2995 64.3907 72.3984 64.437C72.425 64.437 72.4491 64.4612 72.4998 64.4612C72.5747 64.4828 72.6761 64.5069 72.7509 64.5527C72.7775 64.5527 72.8016 64.5743 72.8282 64.5743C72.9272 64.6207 73.0292 64.6448 73.1307 64.6906H73.1548C73.2803 64.7339 73.3817 64.7797 73.4832 64.8502H73.5079C73.6087 64.8959 73.7101 64.9633 73.8116 65.0091C73.8363 65.0091 73.8363 65.0338 73.8598 65.0338C73.9612 65.0771 74.0367 65.147 74.1381 65.1928L74.1647 65.2144C74.4665 65.4204 74.7442 65.6498 75.0194 65.8793L75.046 65.9009C75.2977 66.152 75.5488 66.4272 75.7516 66.7247C76.4066 67.64 76.7857 68.7155 76.7857 69.8819C76.7857 73.0613 73.9371 75.6439 70.4342 75.6439C66.9313 75.6439 64.0827 73.0613 64.0827 69.8819C64.0568 67.2052 66.0983 64.9417 68.8714 64.3016ZM44.0704 64.1396C47.5739 64.1396 50.4218 66.7247 50.4218 69.9035C50.4218 73.083 47.5739 75.6674 44.0704 75.6674C40.5675 75.6674 37.7189 73.083 37.7189 69.9035C37.7189 66.7247 40.5675 64.1396 44.0704 64.1396ZM102.693 83.9714C102.14 86.8966 100.146 89.4601 97.2236 90.9914C94.4764 92.4336 91.0991 92.89 87.5454 93.347C85.606 93.5981 83.5645 93.8733 81.5978 94.3081C76.3559 95.4751 71.3161 97.7628 66.4267 99.9564C60.1766 102.771 54.2772 105.423 48.8108 105.423C45.9622 105.423 43.4161 104.692 40.9979 103.16C35.4535 99.6837 35.7287 93.1658 36.3861 89.5974C36.9898 86.2565 38.6787 83.1235 40.2923 80.1277C40.3912 79.944 40.4685 79.7845 40.5675 79.6008C41.1235 79.7845 41.703 79.9224 42.3072 80.0139C41.3504 84.8625 44.0704 89.8707 49.3637 92.3421L50.3223 92.7985L51.3545 92.4552C55.7659 91.0371 59.8482 88.7278 63.4525 85.6399C65.494 83.9009 67.2337 82.0263 68.6951 79.9898C69.2746 80.0819 69.8547 80.1061 70.4342 80.1061C75.6768 80.1061 80.0857 76.8345 81.3467 72.4429H85.5794C86.8404 76.8567 91.2512 80.1054 96.4938 80.1054C98.586 80.1054 100.526 79.5798 102.188 78.688C102.845 80.4029 103.046 82.1859 102.693 83.9714Z" fill="#99425B"/>
</svg>
