<svg width="141" height="141" viewBox="0 0 141 141" fill="none" xmlns="http://www.w3.org/2000/svg">
<rect width="141" height="141" rx="40" fill="#1E2235"/>
<path d="M60.7857 78.3564L60.9097 78.4168L61.1307 78.5235C61.4128 78.6578 61.6974 78.7908 61.9847 78.9186L62.1652 78.9989C62.4948 79.1435 62.8264 79.281 63.1618 79.4134L63.4047 79.5085C63.7144 79.6293 64.0292 79.7462 64.3447 79.8574L64.4629 79.8979C64.8092 80.0187 65.1588 80.1311 65.5115 80.241L65.7653 80.3161C66.1239 80.4247 66.4779 80.5539 66.848 80.6226C90.3353 84.9051 97.1571 66.5081 97.1571 66.5081C91.4269 73.973 81.2562 75.9424 71.6195 73.7501C71.2545 73.6678 70.8998 73.5535 70.5439 73.4481L70.2759 73.3671C69.9289 73.2606 69.5836 73.1484 69.2402 73.0304L69.0982 72.979C68.7922 72.8707 68.4878 72.7578 68.1851 72.6404L67.9294 72.5402C67.5982 72.4099 67.2696 72.2732 66.9437 72.1302L66.7465 72.0429C66.4678 71.9172 66.1907 71.7882 65.9151 71.6561L65.6741 71.5404C65.4582 71.435 65.2442 71.3226 65.0309 71.2127L64.6017 70.9878C64.3423 70.8483 64.0855 70.7042 63.8313 70.5554L63.5711 70.4102C63.2331 70.2102 62.8983 70.005 62.5668 69.7946L62.2963 69.6147C62.0556 69.4603 61.8174 69.302 61.5818 69.1399L61.3518 68.978C61.1243 68.8173 60.8994 68.6548 60.6765 68.4896L60.377 68.2628C60.172 68.1069 59.9689 67.9484 59.7679 67.7873L59.4961 67.5689C59.2403 67.3589 58.9871 67.1458 58.7366 66.9296L58.6538 66.8595C58.3832 66.6227 58.1168 66.3813 57.8544 66.1354L57.6296 65.9189C57.4349 65.7344 57.244 65.5481 57.0558 65.3573L56.8309 65.1324C56.5924 64.8882 56.3578 64.6401 56.1273 64.3883L56.0926 64.3511C55.8495 64.0849 55.6115 63.8141 55.3788 63.5389L55.1918 63.3166C55.0183 63.1078 54.8461 62.8957 54.6784 62.6818L54.4901 62.4479C54.2886 62.1875 54.0909 61.9243 53.8971 61.6582C48.5473 54.3603 46.6248 44.295 50.9009 36.0287L47.1106 40.8362C42.2537 47.8161 42.8589 56.8977 46.5683 64.3151L46.8401 64.8426L47.0142 65.1767L47.1222 65.3688L47.3156 65.7152C47.4306 65.9182 47.5482 66.12 47.669 66.3217L47.8714 66.6552C48.005 66.8711 48.1419 67.0844 48.2826 67.2977L48.4574 67.5689C48.6508 67.8567 48.8487 68.1446 49.0523 68.4273L49.0697 68.4498L49.1699 68.5854C49.3466 68.8289 49.5285 69.0692 49.7122 69.3069L49.9166 69.5665C50.0804 69.7728 50.2481 69.9784 50.4177 70.1827L50.6092 70.4108C50.8373 70.68 51.0699 70.9473 51.3076 71.2089L51.3218 71.2236L51.3488 71.2532C51.5801 71.5063 51.8178 71.7531 52.0581 72.0011L52.2856 72.2305C52.4719 72.4181 52.6608 72.6025 52.8523 72.7863L53.0843 73.0067C53.3393 73.247 53.597 73.4828 53.8604 73.7141L53.8733 73.7237L54.0082 73.8394C54.2402 74.0399 54.4766 74.2397 54.7144 74.4357L55.0067 74.6683C55.2008 74.8238 55.3974 74.9773 55.5953 75.1283L55.9095 75.3673C56.128 75.528 56.3477 75.686 56.5694 75.8409L56.8103 76.0118L56.8765 76.0587C57.0873 76.2039 57.3025 76.3427 57.5178 76.4821L57.7953 76.6672C58.125 76.876 58.4604 77.0823 58.799 77.2815L59.0765 77.4382C59.3258 77.5815 59.5758 77.7222 59.8296 77.8597L60.246 78.0756L60.7857 78.3564ZM63.1586 54.7143C63.6848 55.4687 64.2676 56.3656 64.966 56.9722C65.2192 57.2511 65.4839 57.5222 65.7538 57.7901L65.962 57.9945C66.2248 58.2489 66.4914 58.4989 66.7664 58.7424L66.7998 58.7706L66.8075 58.779C67.1127 59.0463 67.4276 59.3033 67.7476 59.5565L67.9615 59.7235C68.2828 59.9696 68.6098 60.2112 68.9452 60.4419L68.9742 60.4631L69.4227 60.7587L69.636 60.9C69.8756 61.0529 70.1179 61.2033 70.3653 61.3459L70.4681 61.4057C70.6807 61.5284 70.8966 61.6492 71.1125 61.7661L71.3413 61.8863L71.7923 62.1195L71.8604 62.1504C72.1701 62.3027 72.4824 62.4492 72.8011 62.5886L73.0086 62.6741C73.2631 62.782 73.5207 62.888 73.779 62.987L74.1093 63.1078C74.3445 63.1951 74.5796 63.2748 74.8174 63.3539L75.138 63.4567C75.476 63.5614 75.8095 63.6938 76.1616 63.7522C94.2952 66.7574 98.482 52.7944 98.482 52.7944C94.7077 58.2296 87.3995 60.8223 79.6004 58.7983C79.2558 58.7078 78.9134 58.6088 78.5736 58.5014L78.2646 58.4018C78.0236 58.3241 77.784 58.2412 77.5462 58.1545L77.2224 58.0337C76.9628 57.934 76.7049 57.8301 76.4488 57.722L76.2406 57.6334C75.9217 57.4946 75.6063 57.3478 75.2948 57.1932L74.82 56.9516L74.5462 56.8109C74.3445 56.7017 74.144 56.5873 73.9461 56.4723L73.8028 56.3907C73.5577 56.2476 73.3152 56.1 73.0755 55.948L72.8564 55.8008L72.386 55.4899C72.0535 55.2592 71.7268 55.0203 71.4062 54.7734L71.1858 54.5993C67.772 51.9052 65.0663 48.2209 63.7793 44.0437C62.4312 39.713 62.7217 34.8503 65.0573 30.9045L62.1877 34.9564C58.6756 40.0099 58.8664 46.7764 61.6062 52.1217C62.0645 53.02 62.5831 53.8862 63.1586 54.7143ZM82.2721 48.4618L82.7225 48.6179L82.921 48.6809C83.135 48.7477 83.3464 48.8261 83.5668 48.8672C93.5794 50.8019 96.2961 43.7289 97.0189 42.688C94.6396 46.1133 90.6417 46.9351 85.736 45.7445C85.3343 45.6423 84.938 45.5201 84.5486 45.3783C84.0691 45.2079 83.5988 45.0127 83.1395 44.7936C82.2677 44.3742 81.4399 43.869 80.6683 43.2855C76.2785 39.954 73.5516 33.6012 76.416 28.4263L74.8662 30.5621C72.796 33.6096 72.5923 37.3941 74.029 40.7585C75.5441 44.3309 78.6488 47.1324 82.2721 48.4618ZM72.6071 89.4562H69.8917C69.8149 89.4592 69.741 89.4869 69.6812 89.5351C69.6214 89.5834 69.5787 89.6497 69.5595 89.7242L68.5957 94.1833L67.6319 98.6425C67.613 98.717 67.5704 98.7833 67.5107 98.8316C67.4509 98.8799 67.3771 98.9076 67.3004 98.9105H65.3785C63.4773 98.9105 63.697 97.5952 64.0864 95.7935L64.098 95.7389L64.1404 95.5115L64.1481 95.4691L64.2348 95.0064L64.328 94.511L64.4269 94.0067L64.8651 91.8657L65.304 89.7248C65.3124 89.6921 65.313 89.6579 65.3057 89.6249C65.2985 89.592 65.2836 89.5611 65.2623 89.535C65.241 89.5088 65.2138 89.488 65.183 89.4742C65.1522 89.4604 65.1186 89.454 65.0849 89.4556H62.2982C62.2215 89.4584 62.1477 89.4861 62.0881 89.5346C62.0285 89.583 61.9863 89.6496 61.968 89.7242L61.3685 92.5667L60.7696 95.4099L60.7683 95.4138L60.7131 95.6785C60.023 98.8289 60.2055 101.834 63.9566 101.928L64.0658 101.93H69.9534C70.0302 101.928 70.1039 101.9 70.1637 101.852C70.2235 101.803 70.266 101.737 70.2849 101.662L71.5546 95.6939L72.8242 89.7248C72.8557 89.577 72.7581 89.4569 72.6071 89.4562ZM43.5285 89.4247H40.5471C40.4701 89.4277 40.396 89.4553 40.3358 89.5034C40.2756 89.5515 40.2323 89.6176 40.2123 89.692L39.9296 90.9398L39.6469 92.1876C39.6141 92.3348 39.7099 92.4549 39.8609 92.4549H42.8654C42.9423 92.4521 43.0163 92.4245 43.0763 92.3762C43.1362 92.3279 43.179 92.2616 43.1982 92.187L43.4713 90.9398L43.7444 89.6927C43.7758 89.5455 43.6795 89.4247 43.5285 89.4247ZM42.6636 93.3082H39.6585C39.5815 93.3113 39.5075 93.3389 39.4473 93.387C39.3871 93.4351 39.3438 93.5011 39.3237 93.5755L38.9016 95.4453L38.4801 97.3144L38.3625 97.8503L37.957 99.7586L37.5522 101.668C37.5208 101.815 37.4559 102.052 37.4077 102.195C37.4077 102.195 36.8461 103.866 35.9022 103.846L35.784 103.844L34.9673 103.829C34.8906 103.831 34.8159 103.857 34.7553 103.904C34.6946 103.951 34.6507 104.017 34.63 104.091L34.3184 105.401L34.0074 106.71C33.972 106.857 34.0671 106.978 34.2168 106.98C34.7521 106.987 35.9511 107 36.6765 107C39.0339 107 40.2772 105.694 41.0733 101.935L42.0057 97.6209L42.8802 93.5749C42.9116 93.429 42.814 93.3082 42.6636 93.3082ZM97.9968 92.2969L97.8722 91.7822L97.7495 91.2553L97.6871 90.9893C97.443 90.0403 96.7265 89.4935 95.1703 89.4935L92.748 89.4909L90.5171 89.4877H88.0067C87.93 89.4905 87.8562 89.5182 87.7966 89.5665C87.7369 89.6148 87.6945 89.6812 87.6758 89.7556L87.5646 90.2799L87.4336 90.8994L87.3969 91.0735L86.2667 96.368L85.1937 101.394C85.1616 101.542 85.1513 101.723 85.1693 101.796C85.1873 101.87 85.477 101.93 85.6274 101.93H87.8917C88.0427 101.93 88.2335 101.903 88.3158 101.87C88.398 101.837 88.5194 101.54 88.5496 101.393L88.9519 99.402L89.3547 97.4102L89.3554 97.4069L89.4094 97.1416L89.8977 94.8542L90.3288 92.834C90.3478 92.7597 90.3903 92.6935 90.4499 92.6452C90.5095 92.597 90.5831 92.5692 90.6597 92.5661L97.7848 92.5629C97.9358 92.5642 98.0309 92.444 97.9968 92.2969ZM107.169 87.6449L106.62 87.6468H104.34C104.256 87.6515 104.175 87.6742 104.101 87.7134C104.027 87.7525 103.962 87.8072 103.911 87.8737L98.8681 95.2615C98.7833 95.3862 98.6863 95.3682 98.6529 95.2217L98.2815 93.5941C98.2615 93.5196 98.2181 93.4534 98.1578 93.4053C98.0974 93.3572 98.0232 93.3297 97.9461 93.3268H94.7045C94.5535 93.3268 94.4642 93.4451 94.5053 93.5896L95.9581 98.6792C95.9992 98.8244 96.0024 99.0621 95.9651 99.2086L95.3322 101.671C95.2943 101.818 95.3869 101.937 95.5379 101.937H98.7422C98.8197 101.934 98.8943 101.906 98.9556 101.859C99.0168 101.811 99.0617 101.746 99.084 101.671L99.7176 99.2086C99.7677 99.035 99.8465 98.8711 99.9508 98.7235L108.138 87.8576C108.229 87.7368 108.18 87.6385 108.029 87.6398L107.169 87.6449ZM81.4124 94.0182V94.0156C81.4012 94.0932 81.3629 94.1644 81.3041 94.2163C81.2454 94.2682 81.1701 94.2975 81.0917 94.299H76.9814C76.8388 94.299 76.7668 94.2026 76.788 94.0831L76.7919 94.0735L76.7893 94.0748L76.7912 94.0613L76.8099 93.9912C77.2025 92.9478 78.0018 92.2628 79.5047 92.2628C81.1971 92.2622 81.5274 93.0885 81.4124 94.0182ZM80.2063 89.2737C74.9305 89.2737 73.6801 92.4761 72.9784 95.7087C72.2774 99.0037 72.3372 102.083 77.7975 102.083H78.4593L78.6238 102.083H78.6623L79.3177 102.081H79.3293C80.7711 102.075 82.2175 102.064 82.8028 102.06C82.8791 102.056 82.9521 102.027 83.011 101.979C83.0699 101.93 83.1116 101.864 83.1299 101.79L83.3509 100.71L83.3939 100.499L83.6574 99.2105C83.6658 99.1779 83.6664 99.1437 83.6591 99.1108C83.6519 99.0778 83.637 99.047 83.6157 99.0209C83.5944 98.9948 83.5672 98.974 83.5364 98.9603C83.5056 98.9466 83.472 98.9403 83.4383 98.942H78.5299C76.5773 98.942 75.9977 98.4234 76.2117 96.8981H84.0577L84.057 96.8987L84.0622 96.8981C84.1242 96.8954 84.1842 96.8749 84.2349 96.839C84.2857 96.8031 84.3249 96.7533 84.3481 96.6957L84.3667 96.6276L84.3661 96.6282C85.531 92.2339 85.1969 89.2744 80.2063 89.2737ZM55.2695 94.0015L55.195 94.2643L54.6026 96.3648L54.0102 98.4639C53.9859 98.5383 53.9395 98.6035 53.8771 98.6507C53.8148 98.6979 53.7394 98.7249 53.6613 98.728H50.5257C48.147 98.728 47.5674 96.8672 48.147 94.1236C48.7259 91.317 49.8613 89.5725 52.2027 89.3958C55.4025 89.1542 56.0425 91.4044 55.2695 94.0015ZM57.4207 98.5667C57.4207 98.5667 58.8992 94.9762 59.2346 92.9034C59.6927 90.1283 58.3029 86.1022 52.9352 86.1022C47.5983 86.1022 45.28 89.9452 44.3959 94.1236C43.5118 98.3322 44.6703 102.022 49.977 101.992L54.1637 101.977L58.0761 101.963C58.1537 101.959 58.2282 101.931 58.2895 101.884C58.3509 101.836 58.3962 101.771 58.4192 101.697L59.101 99.0968C59.1389 98.9503 59.047 98.8308 58.896 98.8295L58.2425 98.8257L57.5891 98.8218C57.4612 98.8212 57.388 98.7376 57.4034 98.6278L57.4207 98.5667ZM83.8418 96.163C83.8418 96.1866 83.8372 96.21 83.8282 96.2319C83.8192 96.2537 83.806 96.2736 83.7893 96.2903C83.7726 96.307 83.7528 96.3203 83.731 96.3294C83.7092 96.3385 83.6858 96.3432 83.6622 96.3432C83.6386 96.3433 83.6152 96.3387 83.5933 96.3297C83.5715 96.3207 83.5516 96.3074 83.5349 96.2908C83.5182 96.2741 83.5049 96.2543 83.4958 96.2325C83.4867 96.2107 83.482 96.1873 83.482 96.1636C83.4819 96.1159 83.5008 96.0701 83.5344 96.0363C83.5681 96.0025 83.6138 95.9835 83.6616 95.9834C83.7093 95.9833 83.7551 96.0022 83.7889 96.0359C83.8227 96.0696 83.8417 96.1153 83.8418 96.163Z" fill="#0868AC"/>
</svg>
