<svg width="141" height="141" viewBox="0 0 141 141" fill="none" xmlns="http://www.w3.org/2000/svg">
<rect width="141" height="141" rx="40" fill="#1E2235"/>
<path d="M90.1518 88.7033C90.6562 84.5056 90.5052 83.8893 93.6319 84.5698L94.4254 84.6392C96.8299 84.7484 99.9751 84.2524 101.823 83.3939C105.801 81.5479 108.159 78.4669 104.238 79.2758C95.291 81.1219 94.676 78.0923 94.676 78.0923C104.123 64.075 108.073 46.2808 104.663 41.925C95.3655 30.0449 79.2715 35.6627 79.0023 35.8079L78.9162 35.824C77.1485 35.4571 75.1701 35.238 72.9475 35.202C68.8988 35.1352 65.8268 36.2635 63.4962 38.0305C63.4962 38.0305 34.7852 26.2018 36.121 52.9062C36.405 58.587 44.2634 95.8916 53.6369 84.6238C57.063 80.5037 60.3735 77.0198 60.3735 77.0198C62.0171 78.1115 63.9859 78.6693 66.0497 78.4688L66.2097 78.3326C66.1596 78.844 66.1815 79.3446 66.2734 79.937C63.8593 82.6351 64.5687 83.1086 59.7412 84.102C54.8565 85.1083 57.7261 86.9003 59.5992 87.3688C61.8706 87.9368 67.1247 88.7412 70.6755 83.7718L70.5341 84.3385C71.4812 85.0967 71.4176 89.7854 71.5513 93.135C71.6856 96.4853 71.9098 99.6113 72.5928 101.455C73.2759 103.298 74.0816 108.045 80.4262 106.685C85.7285 105.552 89.7824 103.916 90.1518 88.7033Z" fill="black"/>
<path d="M78.3604 110C75.5544 110 73.727 108.915 72.6173 107.867C70.9421 106.286 70.2777 104.25 69.8806 103.033L69.7091 102.526C68.9098 100.368 68.6386 97.2614 68.478 93.2609C68.4535 92.6601 68.4368 92.0414 68.4182 91.3853C68.4047 90.9053 68.388 90.3033 68.3636 89.6736C67.3527 90.1556 66.2796 90.4947 65.1752 90.6811C63.1968 91.0191 61.07 90.9098 58.8525 90.3553C57.2879 89.964 55.6623 89.1531 54.7357 87.9008C52.0351 90.266 49.4591 89.9454 48.0558 89.4769C45.58 88.6513 43.3645 86.331 41.282 82.3851C39.7983 79.5739 38.3635 75.9114 37.0167 71.4984C34.6714 63.8134 33.1814 55.7192 33.049 53.0616C32.6326 44.7438 34.8719 38.7951 39.7032 35.3825C47.3245 29.9992 58.8718 33.1651 63.0818 34.6024C65.9103 32.8978 69.2381 32.0682 72.9983 32.128C75.0178 32.1608 76.941 32.3381 78.7273 32.6568C80.5907 32.0708 84.2712 31.2297 88.4844 31.2824C96.2471 31.3749 102.68 34.4 107.086 40.0307C110.23 44.0479 108.675 52.484 107.469 57.1553C105.772 63.7261 102.797 70.7144 99.1437 76.7981C100.136 76.8052 101.573 76.6863 103.616 76.2642C107.648 75.4321 108.827 77.5936 109.147 78.5613C110.429 82.4436 104.857 85.3775 103.119 86.1845C100.891 87.2184 97.2604 87.8481 94.2867 87.7118L94.1569 87.7035L93.3755 87.6347L93.2984 88.2863L93.2239 88.9231C93.024 96.633 91.9227 101.516 89.6564 104.742C87.2809 108.124 83.9795 109.072 81.0713 109.695C80.0792 109.907 79.1777 110 78.3604 110ZM72.4553 81.9392C74.2667 83.3888 74.4254 86.1164 74.5674 91.2137C74.5854 91.8499 74.6021 92.4519 74.6246 93.0142C74.6927 94.7169 74.8527 98.704 75.4773 100.389C75.5653 100.627 75.6443 100.869 75.7279 101.125C76.4237 103.256 76.7726 104.324 79.7817 103.681C82.3076 103.139 83.6062 102.654 84.6227 101.207C86.0999 99.103 86.9262 94.8711 87.0779 88.6288L90.1512 88.7033L87.0991 88.337L87.189 87.575C87.4814 85.0626 87.6922 83.248 89.3711 82.0478C90.7186 81.0852 92.2536 81.1784 93.4764 81.3988C92.1328 80.3836 91.7614 79.1929 91.6625 78.7046L91.4061 77.442L92.1264 76.3734C96.2754 70.2178 99.6963 62.6524 101.513 55.6164C103.381 48.3871 102.811 44.5478 102.242 43.8218C94.7056 34.1919 81.6368 38.168 80.272 38.619L80.0413 38.7437L78.8847 38.9589L78.2923 38.8362C76.6589 38.4969 74.8444 38.3093 72.8994 38.2778C69.8434 38.2264 67.3779 38.9487 65.3564 40.4824L63.9538 41.5459L62.3262 40.8757C58.8487 39.4537 48.6347 36.595 43.245 40.4124C40.2533 42.5315 38.8904 46.6837 39.1937 52.7539C39.2939 54.758 40.6555 62.3446 42.9019 69.7024C46.006 79.8708 48.8268 83.2487 50.0046 83.6413C50.2102 83.7107 50.7436 83.2962 51.2743 82.6588C53.4873 80.006 55.7788 77.4196 58.1457 74.9032L59.9256 73.0302L62.0775 74.4599C62.945 75.0362 63.9017 75.3633 64.8842 75.425L70.0162 71.0479L69.2728 78.6352C69.2561 78.8054 69.2477 79.0374 69.3146 79.4679L69.5382 80.9059L68.5679 81.9906L68.4561 82.1165L71.2756 83.4177L72.4553 81.9392Z" fill="black"/>
<path d="M104.238 79.2759C95.2902 81.122 94.6753 78.0923 94.6753 78.0923C104.123 64.0744 108.072 46.2796 104.664 41.9251C95.3661 30.0456 79.2708 35.6634 79.0022 35.8093L78.9155 35.8247C77.1478 35.4578 75.1694 35.2393 72.9455 35.2033C68.8968 35.1372 65.8261 36.2648 63.4955 38.0319C63.4955 38.0319 34.7838 26.2038 36.119 52.9076C36.403 58.589 44.2614 95.8936 53.635 84.6258C57.061 80.5057 60.3708 77.0218 60.3708 77.0218C62.0151 78.1135 63.9832 78.6713 66.0465 78.4708L66.2071 78.3346C66.157 78.846 66.1801 79.3466 66.2714 79.939C63.8567 82.6371 64.566 83.1107 59.7385 84.104C54.8539 85.1103 57.7235 86.9023 59.5972 87.3708C61.868 87.9388 67.1227 88.7433 70.6728 83.7738L70.5308 84.3405C71.4773 85.0987 72.1417 89.2701 72.0305 93.0516C71.9187 96.833 71.8442 99.4295 72.5902 101.457C73.3356 103.485 74.0784 108.047 80.4242 106.688C85.7265 105.552 88.4741 102.607 88.857 97.6953C89.1282 94.203 89.7418 94.7196 89.781 91.5975L90.2738 90.1196C90.8419 85.3859 90.3638 83.8592 93.6312 84.5692L94.4247 84.6386C96.8292 84.7479 99.9757 84.2518 101.823 83.3934C105.8 81.5486 108.159 78.4669 104.238 79.2759Z" fill="#336791"/>
<path d="M78.681 108.105C73.3915 108.105 71.7158 103.917 71.0302 102.204C70.0265 99.6931 69.81 89.9507 70.0336 81.9612C70.0369 81.8265 70.0668 81.6938 70.1217 81.5707C70.1765 81.4475 70.2552 81.3365 70.3531 81.2439C70.4511 81.1514 70.5664 81.0791 70.6924 81.0313C70.8184 80.9834 70.9526 80.961 71.0873 80.9653C71.2219 80.969 71.3545 80.9991 71.4774 81.054C71.6003 81.109 71.7111 81.1876 71.8036 81.2854C71.8961 81.3832 71.9685 81.4983 72.0164 81.6241C72.0644 81.7499 72.0871 81.8839 72.0833 82.0184C71.8256 91.2333 72.1912 99.5838 72.934 101.442C74.0932 104.339 75.8512 106.874 80.8213 105.809C85.5396 104.797 87.3066 103.008 88.0937 98.4452C88.6977 94.944 89.8922 84.9832 90.0394 83.0176C90.0492 82.8833 90.0855 82.7522 90.1461 82.6319C90.2066 82.5116 90.2904 82.4045 90.3924 82.3166C90.4945 82.2288 90.6129 82.1619 90.7409 82.1199C90.8689 82.0779 91.0038 82.0615 91.1381 82.0718C91.4092 82.0923 91.661 82.2195 91.8383 82.4255C92.0156 82.6315 92.104 82.8995 92.084 83.1705C91.9304 85.2171 90.7417 95.1586 90.1146 98.7942C89.1854 104.183 86.7829 106.627 81.2512 107.814C80.3112 108.015 79.4572 108.105 78.681 108.105ZM50.0001 87.6459C49.5378 87.6443 49.0787 87.5684 48.6405 87.421C45.2048 86.2747 41.9322 80.6794 38.9135 70.7886C36.6158 63.2598 35.1598 55.4014 35.0319 52.8473C34.6534 45.2755 36.6029 39.9185 40.8277 36.9261C49.1854 31.0044 63.245 36.6434 63.8394 36.8863C64.0912 36.9892 64.2918 37.1878 64.3971 37.4386C64.5024 37.6893 64.5038 37.9717 64.401 38.2235C64.2981 38.4752 64.0995 38.6759 63.8487 38.7812C63.5979 38.8865 63.3156 38.8879 63.0638 38.785C62.9282 38.7298 49.4462 33.3285 42.0087 38.6019C38.3963 41.1631 36.7379 45.9219 37.0791 52.7451C37.1864 54.897 38.5466 62.5665 40.874 70.1897C43.5688 79.0196 46.6357 84.5912 49.2888 85.476C49.7052 85.6148 50.9723 86.0369 52.7836 83.8587C54.896 81.3218 57.0875 78.8519 59.355 76.4527C59.5447 76.2634 59.801 76.156 60.069 76.1533C60.3369 76.1506 60.5953 76.2529 60.7888 76.4383C60.9823 76.6237 61.0955 76.8775 61.1042 77.1454C61.1129 77.4132 61.0164 77.6738 60.8354 77.8714C60.8046 77.9035 57.721 81.1272 54.3605 85.1701C52.7689 87.0843 51.2434 87.6459 50.0001 87.6459ZM94.6118 79.0068C94.4259 79.0066 94.2436 78.9558 94.0843 78.8599C93.9251 78.7641 93.7949 78.6268 93.7076 78.4626C93.6204 78.2985 93.5794 78.1138 93.589 77.9281C93.5986 77.7425 93.6585 77.563 93.7623 77.4088C103.313 63.2373 106.665 46.114 103.794 42.445C100.18 37.8276 95.0776 35.4162 88.627 35.2767C83.851 35.1739 80.0548 36.3935 79.4341 36.6062L79.2779 36.6698C78.654 36.8657 78.1753 36.5239 77.9948 36.1242C77.8918 35.8953 77.8762 35.6365 77.9509 35.3968C78.0256 35.1571 78.1854 34.9531 78.4002 34.8231C78.4298 34.8057 78.5236 34.7659 78.6759 34.71C79.7303 34.3238 83.5843 33.1672 88.3578 33.2218C95.4953 33.2977 101.391 36.0497 105.407 41.1818C107.307 43.61 107.312 49.204 105.419 56.5304C103.491 64 99.8608 72.0274 95.4619 78.5551C95.2652 78.8487 94.9414 79.0068 94.6118 79.0068ZM95.1001 85.5672C93.4693 85.5672 92.0075 85.3372 91.1324 84.8129C90.2328 84.2738 90.0612 83.5413 90.0387 83.1525C89.7933 78.841 92.172 78.0905 93.3851 77.748C93.2162 77.4923 92.9758 77.1916 92.7272 76.8812C92.0197 75.9971 91.0508 74.7865 90.3041 72.9758C90.1872 72.6931 89.8209 72.0358 89.3968 71.2743C87.0971 67.1504 82.3121 58.5692 85.386 54.1748C86.8086 52.1411 89.6416 51.3405 93.8156 51.7871C92.5877 48.0461 86.7405 36.344 72.8659 36.1165C68.6932 36.0471 65.271 37.3303 62.6995 39.9269C56.9422 45.7413 57.1504 56.2618 57.1536 56.3672C57.1572 56.5017 57.1342 56.6357 57.0859 56.7614C57.0377 56.8871 56.9652 57.0021 56.8725 57.0998C56.7799 57.1974 56.6689 57.2759 56.5459 57.3307C56.4229 57.3855 56.2903 57.4155 56.1557 57.419C56.0212 57.4226 55.8872 57.3996 55.7615 57.3513C55.6358 57.3031 55.5208 57.2306 55.4232 57.1379C55.3255 57.0453 55.247 56.9343 55.1922 56.8113C55.1375 56.6883 55.1074 56.5557 55.1039 56.4211C55.091 55.954 54.8764 44.9137 61.2428 38.4837C64.2223 35.4746 68.1445 33.989 72.9 34.0668C81.7762 34.2127 87.4897 38.7253 90.7192 42.4849C94.2397 46.5824 95.9656 51.1021 96.1076 52.6108C96.2136 53.7327 95.4085 53.957 95.246 53.9904L94.8759 53.9987C90.7796 53.3427 88.1516 53.7982 87.065 55.3506C84.7268 58.6926 89.2535 66.8099 91.1863 70.2765C91.6798 71.1606 92.0358 71.7999 92.199 72.1945C92.8338 73.734 93.6621 74.7685 94.3271 75.6C94.9125 76.3312 95.4195 76.9654 95.6007 77.7095C95.6848 77.8573 96.8793 79.6243 103.967 78.1612C105.744 77.7949 106.809 78.1079 107.135 79.0929C107.776 81.0302 104.181 83.29 102.191 84.214C100.408 85.0429 97.5624 85.5672 95.1001 85.5672ZM92.0827 82.9835C92.3076 83.2104 93.4327 83.6017 95.7626 83.5014C97.8342 83.4128 100.019 82.9623 101.33 82.3538C103.006 81.5751 104.125 80.7044 104.705 80.1101L104.384 80.1692C99.8518 81.1047 96.6461 80.9801 94.8559 79.7984C94.7357 79.7189 94.6198 79.6329 94.509 79.5408C94.3149 79.6172 94.1356 79.6673 94.0078 79.7033C92.9925 79.988 91.9426 80.2829 92.0827 82.9835ZM62.8068 88.7119C61.681 88.7119 60.4962 88.5583 59.2863 88.2557C58.0326 87.9421 55.9193 86.9982 55.9514 85.4477C55.988 83.7083 58.5178 83.1866 59.47 82.9906C62.9102 82.2819 63.1345 81.9979 64.2095 80.6325C64.523 80.2347 64.9131 79.7393 65.4451 79.1456C66.2348 78.2614 67.0977 77.8136 68.0102 77.8136C68.6456 77.8136 69.1668 78.0288 69.5112 78.1721C70.6086 78.6271 71.5243 79.7271 71.9008 81.0424C72.2407 82.2292 72.0782 83.3716 71.4446 84.259C69.3647 87.1717 66.3774 88.7119 62.8068 88.7119ZM58.1663 85.5358C58.4754 85.7748 59.0948 86.0941 59.7842 86.2663C60.8322 86.5285 61.8487 86.6615 62.8074 86.6615C65.7285 86.6615 68.0738 85.4522 69.7772 83.0671C70.1325 82.5697 70.0258 81.9381 69.9308 81.6059C69.7316 80.91 69.2368 80.2771 68.7273 80.0657C68.451 79.9513 68.2216 79.864 68.0108 79.864C67.8977 79.864 67.5533 79.864 66.9737 80.5123C66.5738 80.9621 66.1893 81.4254 65.821 81.9015C64.4819 83.6017 63.8683 84.1787 59.8845 84.9992C58.9123 85.1984 58.4137 85.4015 58.1663 85.5358ZM66.0497 80.8066C65.805 80.8062 65.5684 80.7183 65.3828 80.5587C65.1973 80.3992 65.0748 80.1785 65.0377 79.9366C65.0122 79.7664 64.9951 79.595 64.9863 79.4232C62.375 79.3743 59.8556 78.2537 57.9427 76.258C55.5241 73.7347 54.4234 70.2385 54.9233 66.6666C55.4663 62.7875 55.2632 59.3634 55.154 57.5238C55.1238 57.0123 55.102 56.6428 55.1033 56.3871C55.1052 56.0626 55.1116 55.2022 57.9877 53.7443C59.0106 53.2257 61.0616 52.321 63.3022 52.0891C67.0142 51.7055 69.461 53.3587 70.1936 56.745C72.1707 65.8872 70.3503 69.9308 69.0209 72.8839C68.7735 73.434 68.5396 73.9531 68.3526 74.4563L68.1875 74.8996C67.4852 76.7829 66.878 78.4099 67.0643 79.6249C67.0848 79.758 67.0788 79.8938 67.0468 80.0246C67.0147 80.1553 66.9573 80.2785 66.8776 80.3871C66.7979 80.4956 66.6977 80.5874 66.5825 80.6572C66.4674 80.7269 66.3396 80.7734 66.2065 80.7937L66.0497 80.8066ZM57.1601 56.6711L57.1999 57.403C57.313 59.3139 57.5237 62.8698 56.9532 66.9513C56.5413 69.8974 57.4408 72.7728 59.4225 74.8392C60.9884 76.4726 63.049 77.3741 65.1669 77.3741H65.2106C65.4477 76.3749 65.8416 75.3198 66.2656 74.1832L66.4295 73.7424C66.6409 73.1744 66.8883 72.6243 67.1504 72.0422C68.4298 69.1995 70.0226 65.661 68.1882 57.1787C67.8251 55.4984 66.9442 54.5263 65.4965 54.2056C62.5228 53.5489 58.0911 55.7857 57.1601 56.6711ZM63.3478 56.2361C63.2964 56.5985 64.0116 57.5662 64.9446 57.6953C65.8756 57.8258 66.6724 57.0688 66.7231 56.7064C66.7739 56.344 66.0594 55.9444 65.1264 55.8146C64.1941 55.6848 63.3973 55.8737 63.3478 56.2361ZM65.1585 58.0519L64.897 58.0339C64.3187 57.9536 63.734 57.5893 63.3337 57.0585C63.193 56.8722 62.9636 56.5111 63.0092 56.1885C63.0741 55.7156 63.6511 55.4323 64.5513 55.4323C64.7524 55.4323 64.9619 55.447 65.1727 55.4766C65.6649 55.5447 66.1217 55.6867 66.4591 55.875C67.0438 56.2014 67.0868 56.5657 67.0605 56.754C66.9885 57.2764 66.1577 58.0519 65.1585 58.0519ZM63.6877 56.2965C63.7166 56.5201 64.2705 57.2577 64.9915 57.3573L65.1592 57.3689C65.8249 57.3689 66.3222 56.8452 66.3807 56.6737C66.319 56.5567 65.891 56.2663 65.0795 56.1532C64.9048 56.1281 64.7285 56.1155 64.552 56.1153C64.0302 56.1153 63.7533 56.2329 63.6877 56.2965ZM91.7062 55.4965C91.7569 55.8589 91.0424 56.8266 90.1101 56.9564C89.1784 57.0862 88.381 56.3299 88.3295 55.9675C88.2807 55.6051 88.9952 55.2048 89.9269 55.0756C90.8586 54.9452 91.6547 55.1347 91.7062 55.4965ZM89.8948 57.1414C88.9978 57.1414 88.2235 56.4436 88.1599 55.9906C88.086 55.447 88.9811 55.0339 89.9025 54.906C90.1056 54.8777 90.3067 54.8636 90.5001 54.8636C91.2956 54.8636 91.8225 55.0968 91.8751 55.4734C91.9092 55.7169 91.7222 56.0928 91.4003 56.4321C91.1876 56.655 90.741 57.0412 90.1325 57.1254L89.8948 57.1414ZM90.5007 55.2054C90.3234 55.2054 90.1383 55.2189 89.9507 55.2446C89.0248 55.3738 88.4722 55.7452 88.4992 55.9444C88.53 56.1635 89.1212 56.8002 89.8954 56.8002L90.0863 56.7867C90.592 56.7167 90.9717 56.3864 91.1529 56.1962C91.4376 55.8975 91.5507 55.616 91.5372 55.5203C91.5192 55.3931 91.1773 55.2054 90.5007 55.2054ZM93.0484 76.3087C92.8627 76.3088 92.6804 76.2584 92.5211 76.1629C92.3618 76.0674 92.2315 75.9303 92.1441 75.7664C92.0567 75.6025 92.0155 75.4179 92.0249 75.2324C92.0344 75.0469 92.0941 74.8675 92.1977 74.7133C94.3811 71.4523 93.9814 68.1271 93.5953 64.9112C93.4301 63.5412 93.2605 62.1244 93.3042 60.7648C93.3492 59.3659 93.5271 58.2119 93.6987 57.0958C93.9024 55.7734 94.0952 54.5243 94.0155 53.0413C94.0082 52.9069 94.0275 52.7724 94.0722 52.6454C94.117 52.5184 94.1863 52.4015 94.2762 52.3014C94.3661 52.2012 94.4749 52.1197 94.5963 52.0615C94.7177 52.0034 94.8494 51.9697 94.9838 51.9625C95.1182 51.9552 95.2528 51.9745 95.3797 52.0192C95.5067 52.064 95.6236 52.1333 95.7238 52.2232C95.824 52.3131 95.9054 52.4219 95.9636 52.5433C96.0217 52.6647 96.0554 52.7964 96.0627 52.9308C96.1539 54.6259 95.9361 56.0395 95.7253 57.4075C95.5627 58.4632 95.3944 59.5549 95.3539 60.8303C95.3147 62.0345 95.4683 63.3131 95.6309 64.6663C96.0421 68.086 96.5079 71.9619 93.9017 75.8538C93.8079 75.994 93.6809 76.1088 93.5321 76.1882C93.3832 76.2675 93.2171 76.3089 93.0484 76.3087Z" fill="white"/>
</svg>
