<svg width="141" height="141" viewBox="0 0 141 141" fill="none" xmlns="http://www.w3.org/2000/svg">
<rect width="141" height="141" rx="40" fill="#1E2235"/>
<path d="M55.6736 31.4735C53.9557 31.4735 52.4205 31.8582 51.1105 32.6163C49.8509 33.3454 48.7924 34.4317 47.9638 35.8454C47.1875 37.1701 46.6156 38.7823 46.2631 40.6368C45.5843 44.2114 45.7313 48.6865 46.6888 53.5757C46.8095 54.191 46.9426 54.8141 47.0854 55.4333C46.3215 55.6655 45.5796 55.9046 44.8745 56.1503C40.2592 57.7594 36.3994 59.862 33.713 62.2316C32.3198 63.4588 31.2424 64.7559 30.5052 66.0868C29.7219 67.502 29.3245 68.9537 29.3245 70.4014C29.3245 73.3039 30.9324 76.245 33.9741 78.9128C36.8379 81.4256 40.8878 83.6195 45.683 85.2595C46.1284 85.4109 46.5816 85.5579 47.0374 85.6984C46.878 86.3923 46.7306 87.0916 46.5978 87.7882C45.6861 92.59 45.5797 96.9843 46.2882 100.495C46.6563 102.314 47.2406 103.896 48.0254 105.2C48.8598 106.585 49.919 107.655 51.1732 108.378C52.4948 109.14 54.0502 109.526 55.7959 109.526C58.1728 109.526 60.8303 108.821 63.6945 107.431C66.5025 106.069 69.369 104.117 72.2137 101.631C72.6521 101.248 73.1038 100.838 73.555 100.411H74.2287V100.409H94.6454C97.6232 100.409 100.192 99.9747 102.351 99.1055C104.514 98.2379 106.275 97.0667 107.661 95.5961C109.047 94.1255 110.057 92.3713 110.705 90.333C111.353 88.3118 111.676 86.1226 111.676 83.7838C111.677 79.706 110.938 76.3313 109.475 73.6241C108.023 70.9551 105.888 69.2237 103.068 68.4295C103.046 68.4209 103.028 68.4055 103.016 68.3857C103.003 68.3658 102.997 68.3425 102.999 68.3192C102.998 68.2988 103.002 68.2784 103.012 68.2602C103.021 68.242 103.035 68.2266 103.052 68.2155C105.151 67.0483 106.764 65.3861 107.895 63.2658C109.034 61.1273 109.604 58.5539 109.604 55.5455C109.604 50.5823 108.348 46.8902 105.848 44.4345C103.348 41.9787 100.019 40.7581 95.875 40.7581H73.5298C73.1819 40.4314 72.8269 40.1069 72.4722 39.791C69.5186 37.1703 66.5732 35.1142 63.7157 33.6847C60.7857 32.2172 58.0797 31.4735 55.6736 31.4735ZM55.698 37.3047C57.1867 37.3047 59.1128 37.889 61.2671 38.9947C63.6023 40.1944 66.1344 41.9789 68.5899 44.1592C68.7422 44.2944 68.8979 44.4348 69.057 44.5806C66.8972 46.9687 64.7688 49.6224 62.7227 52.4792C59.2367 52.8197 55.8856 53.3282 52.7478 53.9927C52.6344 53.4958 52.5279 52.9962 52.4304 52.5028L52.4212 52.4517C51.6731 48.6297 51.4908 45.1373 51.8941 42.3575C52.2424 39.9682 53.0218 38.2603 54.0369 37.6725C54.4583 37.4283 55.0172 37.3047 55.698 37.3047ZM73.4055 48.3365V92.6482L70.7782 89.4043L69.0618 87.2855C68.1953 86.2159 66.8076 84.2364 65.1531 81.7128C63.8373 79.7066 62.8791 78.0956 62.4248 77.3154L62.3754 77.2298C61.5824 75.8626 60.9934 74.7612 60.5205 73.877C59.9284 72.769 59.3444 71.6375 58.7825 70.5102L58.8855 70.3101L58.8919 70.2988C59.5111 69.0364 60.1628 67.7691 60.8335 66.5314L60.8393 66.521L61.5509 65.1402L62.602 63.3988L62.6086 63.3875C63.001 62.7195 63.4081 62.0454 63.8187 61.3837L64.542 60.189C65.5049 58.595 66.2789 57.4324 67.4998 55.7479C68.1577 54.8412 68.7815 54.0451 69.7699 52.8098L69.7725 52.8072L69.8213 52.7457L69.8403 52.7214C70.2416 52.2097 70.6467 51.7055 71.0442 51.2225L71.0573 51.2062L71.0651 51.1966C71.8381 50.2393 72.623 49.2802 73.4055 48.3365ZM81.6089 49.2076H94.7456C96.9495 49.2076 98.6351 49.8268 99.8016 51.0478C100.968 52.2687 101.551 54.3914 101.551 57.4014C101.551 60.0786 100.903 62.1197 99.6062 63.5578C98.3094 64.9959 96.6894 65.6987 94.7443 65.6987H81.6076C81.5593 65.6987 81.5198 65.6479 81.5198 65.5853L81.5205 49.3212C81.5205 49.2585 81.5597 49.2076 81.6089 49.2076ZM58.4836 58.8901C58.0084 59.6683 57.5417 60.4539 57.0905 61.2368C56.6392 62.0197 56.1958 62.8116 55.7623 63.6084C55.2387 62.2655 54.7592 60.933 54.3304 59.6297C55.6683 59.3537 57.0591 59.106 58.4836 58.8901ZM48.6546 61.0634C49.6426 64.1257 50.8792 67.2937 52.3315 70.4917C50.8571 73.7425 49.6043 76.9611 48.6024 80.0689C48.2541 79.9605 47.9101 79.8474 47.5711 79.7321C43.585 78.3695 40.2651 76.6107 37.9703 74.6458C36.2145 73.1424 35.1665 71.5564 35.1665 70.4032C35.1665 69.2194 36.2149 67.6943 38.0435 66.216C40.172 64.495 43.2009 62.9222 46.7967 61.6688C47.4078 61.4567 48.0304 61.2534 48.6546 61.0634ZM81.6082 73.2197H95.8427C98.3063 73.2197 100.199 73.9894 101.573 75.5939C102.947 77.1984 103.621 79.4569 103.621 82.4167C103.622 85.4264 102.934 87.7677 101.574 89.4062C100.225 91.061 98.3071 91.883 95.8435 91.883H81.6083C81.56 91.883 81.5205 91.8323 81.5205 91.7696V73.3333C81.5205 73.2706 81.559 73.2197 81.6082 73.2197ZM55.768 77.3663C56.2049 78.1674 56.653 78.9646 57.1062 79.7474C57.5811 80.5675 58.0737 81.3914 58.5748 82.2079C57.0865 82.002 55.6483 81.7617 54.2823 81.4916C54.7254 80.1425 55.2231 78.7606 55.768 77.3663ZM52.7015 87.1266C55.7974 87.7601 59.1871 88.2377 62.7924 88.5473C64.8582 91.4242 67.0045 94.0956 69.1798 96.4978C68.9112 96.7451 68.6403 96.9885 68.371 97.225C65.222 99.9776 62.0595 101.968 59.2273 102.98L59.1685 103.001C57.8991 103.449 56.7656 103.676 55.8016 103.676C55.0904 103.676 54.516 103.553 54.0946 103.31C53.0687 102.718 52.2704 101.048 51.9043 98.7261C51.4763 96.0207 51.626 92.6128 52.3365 88.8712C52.4472 88.2907 52.5687 87.7071 52.7015 87.1266Z" fill="#41E0FF"/>
</svg>
