<svg width="142" height="141" viewBox="0 0 142 141" fill="none" xmlns="http://www.w3.org/2000/svg">
<path d="M71.0179 77.4058C74.832 77.4058 77.9239 74.3139 77.9239 70.4998C77.9239 66.6857 74.832 63.5938 71.0179 63.5938C67.2038 63.5938 64.1118 66.6857 64.1118 70.4998C64.1118 74.3139 67.2038 77.4058 71.0179 77.4058Z" fill="#61DAFB"/>
<path fill-rule="evenodd" clip-rule="evenodd" d="M38.5601 66.8616C36.9962 68.2734 36.4787 69.5072 36.4787 70.5001C36.4787 71.493 36.9962 72.7268 38.5601 74.1385C40.1238 75.5501 42.5278 76.9366 45.7127 78.1527C52.0652 80.5782 61.0112 82.1312 71.0177 82.1312C81.0242 82.1312 89.9702 80.5782 96.3227 78.1527C99.5076 76.9366 101.912 75.5501 103.475 74.1385C105.039 72.7268 105.557 71.493 105.557 70.5001C105.557 69.5072 105.039 68.2734 103.475 66.8616C101.912 65.4501 99.5076 64.0635 96.3227 62.8475C89.9702 60.422 81.0242 58.869 71.0177 58.869C61.0112 58.869 52.0652 60.422 45.7127 62.8475C42.5278 64.0635 40.1238 65.4501 38.5601 66.8616ZM43.9164 58.143C50.9759 55.4476 60.5583 53.8333 71.0177 53.8333C81.4771 53.8333 91.0595 55.4476 98.119 58.143C101.64 59.4874 104.663 61.1497 106.85 63.1237C109.036 65.0974 110.592 67.5859 110.592 70.5001C110.592 73.4143 109.036 75.9027 106.85 77.8765C104.663 79.8505 101.64 81.5128 98.119 82.8572C91.0595 85.5526 81.4771 87.1669 71.0177 87.1669C60.5583 87.1669 50.9759 85.5526 43.9164 82.8572C40.3954 81.5128 37.3725 79.8505 35.1858 77.8765C32.9993 75.9027 31.443 73.4143 31.443 70.5001C31.443 67.5859 32.9993 65.0974 35.1858 63.1237C37.3725 61.1497 40.3954 59.4874 43.9164 58.143Z" fill="#61DAFB"/>
<path fill-rule="evenodd" clip-rule="evenodd" d="M57.94 40.5716C55.9354 39.9231 54.6081 40.0918 53.7483 40.5883C52.8884 41.0847 52.0787 42.1498 51.638 44.2101C51.1974 46.27 51.1986 49.0452 51.7379 52.4114C52.8136 59.1256 55.9416 67.6496 60.9449 76.3155C65.9482 84.9814 71.7661 91.9523 77.0429 96.241C79.6885 98.3912 82.0913 99.7798 84.0956 100.428C86.1001 101.077 87.4274 100.908 88.2873 100.412C89.1471 99.9151 89.9569 98.8501 90.3975 96.7898C90.8381 94.7299 90.8369 91.9546 90.2976 88.5884C89.2219 81.8742 86.0939 73.3503 81.0906 64.6844C76.0873 56.0184 70.2694 49.0475 64.9926 44.7588C62.347 42.6086 59.9442 41.22 57.94 40.5716ZM68.1687 40.851C74.0327 45.6169 80.222 53.1084 85.4517 62.1665C90.6814 71.2246 94.0745 80.3304 95.2699 87.7918C95.8662 91.5133 95.938 94.9623 95.3219 97.8431C94.7058 100.723 93.3289 103.316 90.8051 104.773C88.2813 106.23 85.3481 106.126 82.5456 105.219C79.7427 104.313 76.7917 102.526 73.8669 100.149C68.0028 95.3829 61.8135 87.8914 56.5839 78.8333C51.3542 69.7752 47.961 60.6694 46.7656 53.2081C46.1693 49.4865 46.0975 46.0375 46.7137 43.1568C47.3297 40.2764 48.7066 37.6843 51.2304 36.2272C53.7542 34.7701 56.6874 34.8737 59.49 35.7804C62.2928 36.6871 65.2438 38.4739 68.1687 40.851Z" fill="#61DAFB"/>
<path fill-rule="evenodd" clip-rule="evenodd" d="M90.3977 44.2097C89.957 42.1495 89.1473 41.0844 88.2874 40.5879C87.4275 40.0915 86.1003 39.9228 84.0957 40.5713C82.0914 41.2197 79.6886 42.6083 77.043 44.7585C71.7662 49.0472 65.9483 56.0181 60.945 64.684C55.9418 73.3499 52.8137 81.8739 51.738 88.5881C51.1987 91.9543 51.1975 94.7295 51.6381 96.7894C52.0788 98.8497 52.8885 99.9148 53.7484 100.411C54.6083 100.908 55.9355 101.076 57.9401 100.428C59.9443 99.7795 62.3471 98.3909 64.9927 96.2407C70.2695 91.952 76.0875 84.9811 81.0907 76.3151C86.094 67.6492 89.222 59.1253 90.2977 52.4111C90.8371 49.0449 90.8382 46.2696 90.3977 44.2097ZM95.2701 53.2077C94.0746 60.6691 90.6815 69.7749 85.4518 78.833C80.2221 87.8911 74.0328 95.3826 68.1688 100.149C65.244 102.526 62.293 104.312 59.4901 105.219C56.6875 106.126 53.7543 106.229 51.2305 104.772C48.7067 103.315 47.3299 100.723 46.7138 97.8427C46.0976 94.962 46.1695 91.513 46.7657 87.7914C47.9611 80.3301 51.3543 71.2243 56.584 62.1662C61.8137 53.1081 68.003 45.6166 73.867 40.8507C76.7918 38.4735 79.7428 36.6868 82.5457 35.78C85.3482 34.8734 88.2814 34.7698 90.8052 36.2269C93.329 37.684 94.7059 40.2761 95.322 43.1564C95.9382 46.0372 95.8663 49.4862 95.2701 53.2077Z" fill="#61DAFB"/>
</svg>
