<svg width="141" height="141" viewBox="0 0 141 141" fill="none" xmlns="http://www.w3.org/2000/svg">
<rect width="141" height="141" rx="40" fill="#1E2235"/>
<path d="M70.5749 77.512C74.389 77.512 77.4809 74.4201 77.4809 70.606C77.4809 66.7919 74.389 63.7 70.5749 63.7C66.7608 63.7 63.6688 66.7919 63.6688 70.606C63.6688 74.4201 66.7608 77.512 70.5749 77.512Z" fill="#61DAFB"/>
<path fill-rule="evenodd" clip-rule="evenodd" d="M38.1171 66.9678C36.5532 68.3796 36.0357 69.6134 36.0357 70.6063C36.0357 71.5992 36.5532 72.833 38.1171 74.2447C39.6808 75.6563 42.0848 77.0428 45.2697 78.2589C51.6222 80.6844 60.5682 82.2374 70.5747 82.2374C80.5813 82.2374 89.5272 80.6844 95.8797 78.2589C99.0646 77.0428 101.469 75.6563 103.032 74.2447C104.596 72.833 105.114 71.5992 105.114 70.6063C105.114 69.6134 104.596 68.3796 103.032 66.9678C101.469 65.5563 99.0646 64.1697 95.8797 62.9537C89.5272 60.5282 80.5813 58.9752 70.5747 58.9752C60.5682 58.9752 51.6222 60.5282 45.2697 62.9537C42.0848 64.1697 39.6808 65.5563 38.1171 66.9678ZM43.4734 58.2492C50.5329 55.5538 60.1153 53.9395 70.5747 53.9395C81.0341 53.9395 90.6165 55.5538 97.676 58.2492C101.197 59.5936 104.22 61.2559 106.407 63.2299C108.593 65.2036 110.149 67.6921 110.149 70.6063C110.149 73.5205 108.593 76.0089 106.407 77.9827C104.22 79.9567 101.197 81.619 97.676 82.9634C90.6165 85.6588 81.0341 87.2731 70.5747 87.2731C60.1153 87.2731 50.5329 85.6588 43.4734 82.9634C39.9524 81.619 36.9295 79.9567 34.7428 77.9827C32.5564 76.0089 31 73.5205 31 70.6063C31 67.6921 32.5564 65.2036 34.7428 63.2299C36.9295 61.2559 39.9524 59.5936 43.4734 58.2492Z" fill="#61DAFB"/>
<path fill-rule="evenodd" clip-rule="evenodd" d="M57.497 40.6778C55.4924 40.0293 54.1651 40.198 53.3053 40.6945C52.4454 41.1909 51.6357 42.256 51.195 44.3163C50.7544 46.3762 50.7556 49.1514 51.2949 52.5176C52.3706 59.2318 55.4986 67.7558 60.5019 76.4217C65.5052 85.0876 71.3231 92.0585 76.5999 96.3472C79.2455 98.4974 81.6483 99.886 83.6526 100.534C85.6571 101.183 86.9844 101.014 87.8443 100.518C88.7041 100.021 89.5139 98.9562 89.9545 96.896C90.3951 94.8361 90.394 92.0608 89.8546 88.6946C88.7789 81.9804 85.6509 73.4565 80.6476 64.7906C75.6443 56.1246 69.8264 49.1537 64.5496 44.865C61.904 42.7148 59.5012 41.3262 57.497 40.6778ZM67.7257 40.9572C73.5897 45.7231 79.779 53.2146 85.0087 62.2727C90.2384 71.3308 93.6315 80.4366 94.8269 87.898C95.4232 91.6195 95.495 95.0685 94.8789 97.9493C94.2628 100.83 92.8859 103.422 90.3621 104.879C87.8383 106.336 84.9051 106.232 82.1026 105.326C79.2997 104.419 76.3487 102.632 73.4239 100.255C67.5598 95.4891 61.3706 87.9976 56.1409 78.9395C50.9112 69.8814 47.518 60.7756 46.3226 53.3143C45.7264 49.5927 45.6545 46.1437 46.2707 43.263C46.8868 40.3826 48.2636 37.7905 50.7874 36.3334C53.3112 34.8763 56.2444 34.9799 59.047 35.8866C61.8499 36.7933 64.8008 38.5801 67.7257 40.9572Z" fill="#61DAFB"/>
<path fill-rule="evenodd" clip-rule="evenodd" d="M89.9547 44.3159C89.514 42.2557 88.7043 41.1906 87.8444 40.6941C86.9845 40.1977 85.6573 40.029 83.6527 40.6775C81.6485 41.3259 79.2456 42.7145 76.6 44.8647C71.3232 49.1534 65.5053 56.1243 60.502 64.7902C55.4988 73.4561 52.3707 81.9801 51.295 88.6943C50.7557 92.0605 50.7545 94.8357 51.1951 96.8956C51.6358 98.9559 52.4455 100.021 53.3054 100.517C54.1653 101.014 55.4925 101.183 57.4971 100.534C59.5013 99.8857 61.9041 98.4971 64.5497 96.3469C69.8265 92.0582 75.6445 85.0873 80.6477 76.4213C85.651 67.7554 88.779 59.2315 89.8548 52.5173C90.3941 49.1511 90.3953 46.3758 89.9547 44.3159ZM94.8271 53.3139C93.6316 60.7753 90.2385 69.8811 85.0088 78.9392C79.7791 87.9973 73.5898 95.4888 67.7258 100.255C64.801 102.632 61.85 104.419 59.0471 105.325C56.2445 106.232 53.3113 106.336 50.7875 104.878C48.2637 103.421 46.8869 100.829 46.2708 97.9489C45.6546 95.0682 45.7265 91.6192 46.3227 87.8976C47.5181 80.4363 50.9113 71.3305 56.141 62.2724C61.3707 53.2143 67.56 45.7228 73.424 40.9569C76.3488 38.5797 79.2998 36.793 82.1027 35.8862C84.9052 34.9796 87.8384 34.876 90.3622 36.3331C92.886 37.7902 94.2629 40.3823 94.879 43.2626C95.4952 46.1434 95.4233 49.5924 94.8271 53.3139Z" fill="#61DAFB"/>
</svg>
