<svg width="141" height="141" viewBox="0 0 141 141" fill="none" xmlns="http://www.w3.org/2000/svg">
<rect width="141" height="141" rx="40" fill="#1E2235"/>
<path fill-rule="evenodd" clip-rule="evenodd" d="M71.4356 110C93.1633 109.967 110.752 92.2926 110.752 70.4908C110.752 49.0433 93.2444 31.3797 72.3282 31.0063C50.3615 30.6146 32.0057 48.4392 32 70.054C31.9937 92.2914 49.5038 110.032 71.4356 110ZM71.3716 32.9189C92.2321 32.9119 108.853 49.8604 108.847 71.1317C108.84 91.2137 91.7782 108.013 71.3868 108.018C50.6126 108.022 33.9062 91.1788 33.9068 70.2309C33.9081 49.823 50.8744 32.9259 71.3716 32.9189ZM55.6275 52.7391C55.9686 53.8757 55.0139 54.2713 53.999 54.3505C52.9308 54.4329 51.8633 54.5134 50.6234 54.6079C54.716 66.8007 58.7471 78.8129 62.8739 91.1047C63.168 90.6235 63.2891 90.4878 63.3424 90.3294C65.608 83.5578 67.8863 76.7907 70.0943 70.0001C70.2958 69.3808 70.1957 68.5605 69.9751 67.924C68.8068 64.5516 67.4071 61.2526 66.3826 57.8396C65.6822 55.503 64.7528 53.9911 61.9908 54.2618C61.5205 54.308 60.9461 53.2957 60.4193 52.7727C61.0564 52.3923 61.6891 51.6925 62.3319 51.683C67.9561 51.5965 73.5814 51.5982 79.2056 51.688C79.851 51.6988 80.4836 52.417 81.1207 52.8069C80.5628 53.3166 80.0817 54.0811 79.4294 54.2782C78.3828 54.5939 77.2221 54.5343 75.9695 54.6459L88.2352 91.1344C90.0932 84.9626 91.8219 79.2953 93.5031 73.6135C95.0029 68.5415 94.1091 63.8048 91.3972 59.3376C90.582 57.9943 89.5804 56.6909 89.1183 55.226C88.5934 53.5594 88.1572 51.662 88.4355 49.9904C88.9078 47.1574 91.0815 45.7507 94.0229 45.4813C77.9264 30.5423 52.6316 35.8901 43.3111 52.1216C46.8991 51.9562 50.3248 51.7387 53.753 51.6918C54.4009 51.6836 55.4754 52.2313 55.6275 52.7391ZM62.0409 102.167C61.9661 102.385 61.9617 102.629 61.9027 102.992C68.8397 104.915 75.643 104.776 82.606 102.43L71.9688 73.2953C68.5646 83.1914 65.2999 92.6774 62.0409 102.167ZM56.6805 100.849L40.6543 56.8868C33.4244 71.0093 38.9243 92.5563 56.6805 100.849ZM105.13 72.6005C105.638 65.9227 103.335 56.677 101.345 55.4054C101.123 57.8618 101.278 60.5946 100.573 63.0847C98.9142 68.9516 96.8857 74.7165 94.9319 80.4972C92.8083 86.7807 90.601 93.0356 88.4298 99.3032C98.6309 93.2562 104.237 84.3312 105.13 72.6005Z" fill="#494949"/>
<path fill-rule="evenodd" clip-rule="evenodd" d="M71.4356 110C93.1633 109.967 110.752 92.2926 110.752 70.4908C110.752 49.0433 93.2444 31.3797 72.3282 31.0063C50.3615 30.6146 32.0057 48.4392 32 70.054C31.9937 92.2914 49.5038 110.032 71.4356 110ZM71.3716 32.9189C92.2321 32.9119 108.853 49.8604 108.847 71.1317C108.84 91.2137 91.7782 108.013 71.3868 108.018C50.6126 108.022 33.9062 91.1788 33.9068 70.2309C33.9081 49.823 50.8744 32.9259 71.3716 32.9189ZM55.6275 52.7391C55.9686 53.8757 55.0139 54.2713 53.999 54.3505C52.9308 54.4329 51.8633 54.5134 50.6234 54.6079C54.716 66.8007 58.7471 78.8129 62.8739 91.1047C63.168 90.6235 63.2891 90.4878 63.3424 90.3294C65.608 83.5578 67.8863 76.7907 70.0943 70.0001C70.2958 69.3808 70.1957 68.5605 69.9751 67.924C68.8068 64.5516 67.4071 61.2526 66.3826 57.8396C65.6822 55.503 64.7528 53.9911 61.9908 54.2618C61.5205 54.308 60.9461 53.2957 60.4193 52.7727C61.0564 52.3923 61.6891 51.6925 62.3319 51.683C67.9561 51.5965 73.5814 51.5982 79.2056 51.688C79.851 51.6988 80.4836 52.417 81.1207 52.8069C80.5628 53.3166 80.0817 54.0811 79.4294 54.2782C78.3828 54.5939 77.2221 54.5343 75.9695 54.6459L88.2352 91.1344C90.0932 84.9626 91.8219 79.2953 93.5031 73.6135C95.0029 68.5415 94.1091 63.8048 91.3972 59.3376C90.582 57.9943 89.5804 56.6909 89.1183 55.226C88.5934 53.5594 88.1572 51.662 88.4355 49.9904C88.9078 47.1574 91.0815 45.7507 94.0229 45.4813C77.9264 30.5423 52.6316 35.8901 43.3111 52.1216C46.8991 51.9562 50.3248 51.7387 53.753 51.6918C54.4009 51.6836 55.4754 52.2313 55.6275 52.7391ZM62.0409 102.167C61.9661 102.385 61.9617 102.629 61.9027 102.992C68.8397 104.915 75.643 104.776 82.606 102.43L71.9688 73.2953C68.5646 83.1914 65.2999 92.6774 62.0409 102.167ZM56.6805 100.849L40.6543 56.8868C33.4244 71.0093 38.9243 92.5563 56.6805 100.849ZM105.13 72.6005C105.638 65.9227 103.335 56.677 101.345 55.4054C101.123 57.8618 101.278 60.5946 100.573 63.0847C98.9142 68.9516 96.8857 74.7165 94.9319 80.4972C92.8083 86.7807 90.601 93.0356 88.4298 99.3032C98.6309 93.2562 104.237 84.3312 105.13 72.6005Z" fill="black" fill-opacity="0.2"/>
<path fill-rule="evenodd" clip-rule="evenodd" d="M71.3716 32.9189C92.2321 32.9119 108.853 49.8604 108.847 71.1317C108.84 91.2137 91.7782 108.013 71.3868 108.018C50.6126 108.022 33.9062 91.1788 33.9068 70.2309C33.9081 49.823 50.8744 32.9259 71.3716 32.9189ZM53.999 54.3505C55.0139 54.2713 55.9686 53.8757 55.6275 52.7391C55.4754 52.2313 54.4009 51.6836 53.753 51.6918C50.3248 51.7387 46.8991 51.9562 43.3111 52.1216C52.6316 35.8901 77.9264 30.5423 94.0229 45.4813C91.0815 45.7507 88.9078 47.1574 88.4355 49.9904C88.1572 51.662 88.5934 53.5594 89.1183 55.226C89.5804 56.6909 90.582 57.9943 91.3972 59.3376C94.1091 63.8048 95.0029 68.5415 93.5031 73.6135C91.8219 79.2953 90.0932 84.9626 88.2352 91.1344L75.9695 54.6459C77.2221 54.5343 78.3828 54.5939 79.4294 54.2782C80.0817 54.0811 80.5628 53.3166 81.1207 52.8069C80.4836 52.417 79.851 51.6988 79.2056 51.688C73.5814 51.5982 67.9561 51.5965 62.3319 51.683C61.6891 51.6925 61.0564 52.3923 60.4193 52.7727C60.9461 53.2957 61.5205 54.308 61.9908 54.2618C64.7528 53.9911 65.6822 55.503 66.3826 57.8396C67.4071 61.2526 68.8068 64.5516 69.9751 67.924C70.1957 68.5605 70.2958 69.3808 70.0943 70.0001C67.8863 76.7907 65.608 83.5578 63.3424 90.3294C63.2891 90.4878 63.168 90.6235 62.8739 91.1047C58.7471 78.8129 54.716 66.8007 50.6234 54.6079C51.8633 54.5134 52.9308 54.4329 53.999 54.3505ZM61.9027 102.992C61.9617 102.629 61.9661 102.385 62.0409 102.167C65.2999 92.6774 68.5646 83.1914 71.9688 73.2953L82.606 102.43C75.643 104.776 68.8397 104.915 61.9027 102.992ZM56.6805 100.849L40.6543 56.8868C33.4244 71.0093 38.9243 92.5563 56.6805 100.849ZM101.345 55.4054C103.335 56.677 105.638 65.9227 105.13 72.6005C104.237 84.3312 98.6309 93.2562 88.4298 99.3032C90.601 93.0356 92.8083 86.7807 94.9319 80.4972C96.8857 74.7165 98.9142 68.9516 100.573 63.0847C101.278 60.5946 101.123 57.8618 101.345 55.4054Z" fill="#494949"/>
<path fill-rule="evenodd" clip-rule="evenodd" d="M71.3716 32.9189C92.2321 32.9119 108.853 49.8604 108.847 71.1317C108.84 91.2137 91.7782 108.013 71.3868 108.018C50.6126 108.022 33.9062 91.1788 33.9068 70.2309C33.9081 49.823 50.8744 32.9259 71.3716 32.9189ZM53.999 54.3505C55.0139 54.2713 55.9686 53.8757 55.6275 52.7391C55.4754 52.2313 54.4009 51.6836 53.753 51.6918C50.3248 51.7387 46.8991 51.9562 43.3111 52.1216C52.6316 35.8901 77.9264 30.5423 94.0229 45.4813C91.0815 45.7507 88.9078 47.1574 88.4355 49.9904C88.1572 51.662 88.5934 53.5594 89.1183 55.226C89.5804 56.6909 90.582 57.9943 91.3972 59.3376C94.1091 63.8048 95.0029 68.5415 93.5031 73.6135C91.8219 79.2953 90.0932 84.9626 88.2352 91.1344L75.9695 54.6459C77.2221 54.5343 78.3828 54.5939 79.4294 54.2782C80.0817 54.0811 80.5628 53.3166 81.1207 52.8069C80.4836 52.417 79.851 51.6988 79.2056 51.688C73.5814 51.5982 67.9561 51.5965 62.3319 51.683C61.6891 51.6925 61.0564 52.3923 60.4193 52.7727C60.9461 53.2957 61.5205 54.308 61.9908 54.2618C64.7528 53.9911 65.6822 55.503 66.3826 57.8396C67.4071 61.2526 68.8068 64.5516 69.9751 67.924C70.1957 68.5605 70.2958 69.3808 70.0943 70.0001C67.8863 76.7907 65.608 83.5578 63.3424 90.3294C63.2891 90.4878 63.168 90.6235 62.8739 91.1047C58.7471 78.8129 54.716 66.8007 50.6234 54.6079C51.8633 54.5134 52.9308 54.4329 53.999 54.3505ZM61.9027 102.992C61.9617 102.629 61.9661 102.385 62.0409 102.167C65.2999 92.6774 68.5646 83.1914 71.9688 73.2953L82.606 102.43C75.643 104.776 68.8397 104.915 61.9027 102.992ZM56.6805 100.849L40.6543 56.8868C33.4244 71.0093 38.9243 92.5563 56.6805 100.849ZM101.345 55.4054C103.335 56.677 105.638 65.9227 105.13 72.6005C104.237 84.3312 98.6309 93.2562 88.4298 99.3032C90.601 93.0356 92.8083 86.7807 94.9319 80.4972C96.8857 74.7165 98.9142 68.9516 100.573 63.0847C101.278 60.5946 101.123 57.8618 101.345 55.4054Z" fill="white"/>
</svg>
