<svg width="141" height="141" viewBox="0 0 141 141" fill="none" xmlns="http://www.w3.org/2000/svg">
<rect width="141" height="141" rx="40" fill="#1E2235"/>
<path d="M43 47.1793L48.0056 103.316L70.4659 109.551L92.9888 103.308L98 47.1793H43ZM85.9342 78.4994L84.4764 92.0801L84.482 93.2432L70.5 97.1483L70.4888 97.1582L56.3952 93.2966L55.4417 82.5391H62.353L62.8431 87.9771L70.5025 90.0211L70.5 90.0305V90.0106L78.1886 87.8425L79 78.8171H62.9287L62.7909 77.3561L62.477 73.853L62.3127 71.9932H79.6117L80.2407 65.1694H53.8927L53.7543 63.5633L53.4404 59.8226L53.2761 57.7252H87.7655L87.5999 59.7935L85.9342 78.4994ZM86.0087 39.9672L81.5738 34.7724H86.0087V31.6707H76.0831V34.3772L81.2878 39.1148H76.0831V42.2166H86.0087V39.9672ZM74.2221 39.9672L69.9994 34.7724H74.2221V31.6707H64.9169V34.3772L69.714 39.1148H64.9169V42.2166H74.2221V39.9672ZM63.0558 39.1148H58.0931V34.7724H63.0558V31.6707H54.371V42.2166H63.0558V39.1148Z" fill="#1572B6"/>
</svg>
