<svg width="142" height="141" viewBox="0 0 142 141" fill="none" xmlns="http://www.w3.org/2000/svg">
<path d="M58.0517 109.666C65.2583 109.666 71.1072 103.817 71.1072 96.6107V83.5552H58.0517C50.845 83.5552 44.9961 89.4041 44.9961 96.6107C44.9961 103.817 50.845 109.666 58.0517 109.666Z" fill="#0ACF83"/>
<path d="M44.9961 70.4996C44.9961 63.293 50.845 57.4441 58.0517 57.4441H71.1072V83.5552H58.0517C50.845 83.5552 44.9961 77.7063 44.9961 70.4996Z" fill="#A259FF"/>
<path d="M44.9961 44.3886C44.9961 37.1819 50.845 31.333 58.0517 31.333H71.1072V57.4441H58.0517C50.845 57.4441 44.9961 51.5952 44.9961 44.3886Z" fill="#F24E1E"/>
<path d="M71.1072 31.333H84.1628C91.3694 31.333 97.2183 37.1819 97.2183 44.3886C97.2183 51.5952 91.3694 57.4441 84.1628 57.4441H71.1072V31.333Z" fill="#FF7262"/>
<path d="M97.2183 70.4996C97.2183 77.7063 91.3694 83.5552 84.1628 83.5552C76.9561 83.5552 71.1072 77.7063 71.1072 70.4996C71.1072 63.293 76.9561 57.4441 84.1628 57.4441C91.3694 57.4441 97.2183 63.293 97.2183 70.4996Z" fill="#1ABCFE"/>
</svg>
