<svg width="142" height="141" viewBox="0 0 142 141" fill="none" xmlns="http://www.w3.org/2000/svg">
<path d="M109.029 67.0102L74.8277 32.811C72.8592 30.8413 69.6647 30.8413 67.6938 32.811L60.5918 39.913L69.6011 48.9222C71.6946 48.2148 74.0954 48.6894 75.7643 50.3583C77.4411 52.0378 77.9124 54.4591 77.1878 56.5594L85.8702 65.2422C87.9708 64.5185 90.3946 64.9867 92.0723 66.6672C94.4171 69.0111 94.4171 72.8099 92.0723 75.1553C89.7269 77.5011 85.9281 77.5011 83.5814 75.1553C81.8177 73.3898 81.382 70.7996 82.2748 68.6268L74.1778 60.5297L74.1768 81.8379C74.7638 82.1281 75.2999 82.5114 75.7643 82.9731C78.1091 85.317 78.1091 89.1161 75.7643 91.4634C73.4189 93.8079 69.6182 93.8079 67.2762 91.4634C64.9314 89.1161 64.9314 85.3173 67.2762 82.9734C67.8381 82.4112 68.5059 81.966 69.2409 81.6634V60.1567C68.5048 59.8562 67.8366 59.4107 67.2762 58.8467C65.4996 57.0726 65.0724 54.4659 65.9827 52.2845L57.1017 43.4025L33.6507 66.852C31.6801 68.8235 31.6801 72.0183 33.6507 73.9883L67.8523 108.188C69.8214 110.158 73.0153 110.158 74.9868 108.188L109.028 74.1471C110.998 72.1765 110.998 68.9799 109.028 67.0102" fill="#EF4444"/>
</svg>
