<svg width="141" height="141" viewBox="0 0 141 141" fill="none" xmlns="http://www.w3.org/2000/svg">
<rect width="141" height="141" rx="40" fill="#1E2235"/>
<path d="M110.333 32H32V110.333H110.333V32Z" fill="#F7DF1E"/>
<path d="M84.6201 93.1979C86.1979 95.7742 88.2507 97.6679 91.8814 97.6679C94.9315 97.6679 96.8798 96.1435 96.8798 94.0372C96.8798 91.5131 94.878 90.6192 91.5209 89.1507L89.6806 88.3612C84.3689 86.0982 80.8402 83.2633 80.8402 77.2702C80.8402 71.7495 85.0465 67.5469 91.6203 67.5469C96.3004 67.5469 99.665 69.1757 102.09 73.4405L96.3576 77.1209C95.0956 74.858 93.7341 73.9665 91.6203 73.9665C89.4643 73.9665 88.0978 75.3342 88.0978 77.1209C88.0978 79.3292 89.4655 80.2232 92.6237 81.5909L94.4639 82.3792C100.718 85.0612 104.249 87.7954 104.249 93.9427C104.249 100.57 99.0433 104.201 92.0518 104.201C85.2156 104.201 80.7991 100.943 78.6381 96.6732L84.6201 93.1979ZM58.6171 93.8358C59.7735 95.8874 60.8254 97.6219 63.3544 97.6219C65.7728 97.6219 67.2984 96.6757 67.2984 92.9965V67.9671H74.6593V93.096C74.6593 100.718 70.1906 104.187 63.6678 104.187C57.7741 104.187 54.361 101.137 52.6252 97.4634L58.6171 93.8358Z" fill="black"/>
</svg>
