<svg width="141" height="141" viewBox="0 0 141 141" fill="none" xmlns="http://www.w3.org/2000/svg">
<path d="M109.667 31.333H31.3334V109.666H109.667V31.333Z" fill="#F7DF1E"/>
<path d="M83.9534 92.5309C85.5313 95.1072 87.5841 97.0009 91.2148 97.0009C94.2648 97.0009 96.2132 95.4765 96.2132 93.3702C96.2132 90.8462 94.2114 89.9522 90.8542 88.4837L89.014 87.6942C83.7023 85.4312 80.1735 82.5963 80.1735 76.6032C80.1735 71.0825 84.3799 66.8799 90.9537 66.8799C95.6338 66.8799 98.9984 68.5087 101.423 72.7735L95.691 76.454C94.429 74.191 93.0675 73.2995 90.9537 73.2995C88.7977 73.2995 87.4312 74.6672 87.4312 76.454C87.4312 78.6622 88.7989 79.5562 91.9571 80.9239L93.7973 81.7122C100.052 84.3942 103.583 87.1284 103.583 93.2757C103.583 99.903 98.3767 103.534 91.3852 103.534C84.549 103.534 80.1325 100.276 77.9715 96.0062L83.9534 92.5309ZM57.9505 93.1688C59.1068 95.2204 60.1587 96.9549 62.6878 96.9549C65.1062 96.9549 66.6318 96.0087 66.6318 92.3295V67.3001H73.9927V92.429C73.9927 100.051 69.5239 103.52 63.0011 103.52C57.1075 103.52 53.6944 100.47 51.9586 96.7964L57.9505 93.1688Z" fill="black"/>
</svg>
