<svg width="141" height="141" viewBox="0 0 141 141" fill="none" xmlns="http://www.w3.org/2000/svg">
<rect width="141" height="141" rx="40" fill="#1E2235"/>
<path d="M70.5 110C92.3153 110 110 92.3153 110 70.5C110 48.6848 92.3153 31 70.5 31C48.6848 31 31 48.6848 31 70.5C31 92.3153 48.6848 110 70.5 110Z" fill="black"/>
<path d="M96.6176 100.134L61.3453 54.7H54.7001V86.287H60.0165V61.4514L92.4436 103.349C93.9047 102.371 95.2991 101.297 96.6176 100.134Z" fill="url(#paint0_linear_52_445)"/>
<path d="M81.4723 54.7H86.7387V86.2999H81.4723V54.7Z" fill="url(#paint1_linear_52_445)"/>
<defs>
<linearGradient id="paint0_linear_52_445" x1="78.8389" y1="82.1304" x2="94.4194" y2="101.442" gradientUnits="userSpaceOnUse">
<stop stop-color="white"/>
<stop offset="1" stop-color="white" stop-opacity="0"/>
</linearGradient>
<linearGradient id="paint1_linear_52_445" x1="84.1054" y1="54.6999" x2="84.0172" y2="77.9061" gradientUnits="userSpaceOnUse">
<stop stop-color="white"/>
<stop offset="1" stop-color="white" stop-opacity="0"/>
</linearGradient>
</defs>
</svg>
