<svg width="141" height="141" viewBox="0 0 141 141" fill="none" xmlns="http://www.w3.org/2000/svg">
<rect width="141" height="141" rx="40" fill="#1E2235"/>
<path fill-rule="evenodd" clip-rule="evenodd" d="M24 63.942C24 64.5335 24.1741 64.9238 24.2717 65.3033C24.9078 67.7708 26.2749 69.8884 27.8969 71.82C30.2071 74.5727 33.0364 76.7887 35.9347 78.8726C38.4485 80.6798 41.0137 82.4465 43.5376 84.2402C43.9708 84.5481 44.3806 84.9023 44.8508 85.28C44.4462 85.4987 44.1097 85.6914 43.7597 85.8689C40.429 87.5583 37.2244 89.452 34.2706 91.7463C32.4904 93.1294 30.7691 94.5991 29.5534 96.5198C27.5974 99.6091 26.905 102.9 28.363 106.414C28.7887 107.441 29.4382 108.327 30.3544 108.983C30.6513 109.195 30.9845 109.405 31.332 109.488C32.2221 109.697 33.129 109.834 34.03 110L36.5817 109.998C39.4034 109.747 41.9719 108.78 44.2931 107.178C47.9208 104.675 50.3647 101.318 51.4155 97.0094C52.1794 93.8781 52.2106 90.7434 51.3104 87.6264C51.2242 87.3376 51.1248 87.053 51.0125 86.7733C50.9032 86.4932 50.7745 86.2206 50.623 85.8714L56.4078 82.5449L56.4945 82.619C56.3893 82.9631 56.2774 83.3063 56.1823 83.6538C55.495 86.1642 55.0382 88.7184 55.2022 91.3239C55.3772 94.1002 56.1521 96.699 57.7775 99.0185C59.0916 100.895 62.2229 100.964 63.6195 99.0816C64.115 98.4127 64.5954 97.7136 64.9563 96.9674C65.8994 95.0198 66.7727 93.0377 67.6737 91.069L67.831 90.7089C67.7662 91.6411 67.6905 92.4597 67.656 93.2791C67.6022 94.5587 67.6771 95.8308 68.1145 97.0481C68.4889 98.0897 69.1258 98.8679 70.3188 99.005C71.1348 99.0984 71.7851 98.7249 72.385 98.2512C73.3143 97.5168 74.0845 96.6012 74.6489 95.5599C76.2483 92.6229 77.8905 89.7036 79.34 86.6926C80.9082 83.4359 82.2796 80.0841 83.7358 76.7719L83.9765 76.1847C84.3206 77.5367 84.5603 78.8609 85.002 80.1144C85.5152 81.569 86.1504 82.9891 86.8419 84.3697C87.1692 85.0217 87.1313 85.4449 86.6779 85.9917C84.7799 88.2801 82.9147 90.5962 81.0479 92.9098C80.6348 93.4204 80.2234 93.9404 79.8793 94.4982C79.6706 94.8504 79.5333 95.2403 79.4755 95.6457C79.4176 96.0189 79.5064 96.4 79.7233 96.7091C79.9402 97.0182 80.2684 97.2314 80.639 97.3039C81.387 97.465 82.154 97.5197 82.9173 97.4663C85.5228 97.2745 87.8885 96.36 89.98 94.8103C92.6898 92.8029 93.5597 90.0637 92.9035 86.8171C92.726 85.9362 92.4122 85.0798 92.1068 84.2309C91.9697 83.8481 91.9604 83.5797 92.2103 83.223C94.3766 80.1295 96.2275 76.8476 97.9488 73.49C98.017 73.3579 98.0868 73.2258 98.2062 73.0845C98.764 75.987 99.6037 78.7843 101.108 81.3225C100.341 82.062 99.5809 82.7325 98.8936 83.4712C97.3801 85.0983 96.0677 86.865 95.3828 89.0196C95.0884 89.9484 94.8621 90.8923 94.9933 91.8842C95.1969 93.4247 96.4589 94.4258 97.9741 94.075C101.216 93.3245 104.015 91.7967 106.061 89.0903C107.437 87.268 107.562 85.2354 106.986 83.1061C106.828 82.5273 106.64 81.9577 106.438 81.2939C107.238 81.0457 108.018 80.7479 108.825 80.5637C113.014 79.6079 117.157 79.7745 121.194 81.2872C123.55 82.1706 125.454 83.6487 126.583 85.9741C127.962 88.8168 127.2 91.5141 124.521 93.3111C124.271 93.4785 123.985 93.6106 123.778 93.8201C123.711 93.8969 123.662 93.9867 123.632 94.0837C123.602 94.1808 123.593 94.283 123.605 94.3837C123.623 94.4872 123.896 94.6168 124.054 94.6151C124.934 94.6084 125.649 94.1465 126.334 93.672C128.052 92.4832 129.306 90.8839 129.576 88.7781L129.629 88.62L129.564 87.2487C129.538 87.1696 129.583 87.0913 129.578 87.0316C129.212 83.965 127.574 81.5867 125.192 79.7224C122.432 77.5644 119.174 76.676 115.728 76.5355C112.933 76.4152 110.142 76.8448 107.513 77.8C106.758 78.0734 106.01 78.3973 105.251 78.7027C105.15 78.5185 105.04 78.3418 104.95 78.1592C104.171 76.5641 103.227 75.0397 103.018 73.2107C102.87 71.9117 102.689 70.6144 102.997 69.3297C103.294 68.0939 103.681 66.879 104.046 65.66C104.233 65.0324 104.101 64.6807 103.502 64.398C103.294 64.294 103.071 64.2208 102.841 64.181C101.369 63.9673 99.9166 64.0893 98.4906 64.504C97.9858 64.6513 97.619 64.9339 97.5071 65.4926C97.4432 65.8131 97.3128 66.1202 97.2219 66.4365C96.8492 67.7515 96.5851 69.0917 95.9827 70.3444C94.4734 73.4866 92.7504 76.5103 90.987 79.512C90.7961 79.8359 90.595 80.1539 90.3544 80.5468C89.7352 79.2512 89.0748 78.0885 88.8745 76.7256C88.6482 75.1844 88.4699 73.6456 88.8535 72.1161C89.1387 70.9753 89.5114 69.8556 89.8546 68.7299C90.017 68.1948 89.9421 67.9138 89.4575 67.632C89.2127 67.4898 88.9359 67.3636 88.66 67.3224C87.1503 67.0924 85.6079 67.2186 84.1557 67.6909C83.6988 67.839 83.4591 68.1343 83.3194 68.6054C82.9088 69.9952 82.5589 71.4187 81.9826 72.7404C79.6488 78.0911 77.2477 83.414 74.8492 88.7361C74.3486 89.8474 73.7622 90.9201 73.1977 92.002C73.0547 92.2763 72.846 92.5177 72.6677 92.7752C72.5246 92.6061 72.4691 92.49 72.47 92.3739C72.4742 91.6899 72.3926 90.9857 72.523 90.3245C72.9234 88.3245 73.366 86.3333 73.8505 84.352C74.246 82.7149 74.7061 81.0928 75.1445 79.4666C75.2917 78.9223 75.2942 78.4133 74.903 77.9556C74.246 77.1892 72.8729 77.0209 72.0586 77.6115L71.6985 77.8151L71.7683 77.2346C71.9399 75.9903 71.9744 74.7503 71.6329 73.5245C71.2072 71.9967 70.1168 71.1175 68.5318 71.1663C67.7932 71.189 67.0175 71.3152 66.3335 71.5844C63.4571 72.7118 61.2453 74.7082 59.3625 77.1101C59.1879 77.3331 58.9716 77.52 58.7256 77.6603C56.2917 79.0098 53.8503 80.3424 51.4096 81.6801L48.6931 83.1683C47.9645 82.4734 47.3024 81.7524 46.5511 81.1408C44.2569 79.2697 41.9256 77.445 39.6154 75.5949C37.5677 73.9552 35.5839 72.2474 34.0662 70.076C32.9372 68.4607 32.2094 66.6931 32.1396 64.6959C32.0513 62.1509 32.7731 59.8256 34.0687 57.6609C35.7261 54.8913 37.9867 52.6686 40.4719 50.6554C43.1009 48.5269 45.9445 46.7197 48.8916 45.0699C53.0148 42.7623 57.2558 40.7196 61.8031 39.371C66.4656 37.9879 71.1962 37.1962 76.0758 37.7481C77.994 37.9651 79.8566 38.4043 81.567 39.3424C82.8769 40.06 83.9512 40.9997 84.451 42.4686C84.944 43.914 84.9288 45.3787 84.5872 46.8468C83.8932 49.8199 82.2653 52.2707 80.2167 54.4606C76.8565 58.0504 72.7577 60.4944 68.1431 62.1088C65.4899 63.0383 62.7294 63.6272 59.9278 63.8613C57.6319 64.0539 55.3839 63.8503 53.21 63.0519C51.7706 62.5228 50.517 61.7134 49.5091 60.539C49.3291 60.3287 49.0986 60.1007 48.7629 60.2975C48.434 60.491 48.3759 60.804 48.4861 61.1212C48.6704 61.6478 48.8403 62.1963 49.1272 62.6675C49.8482 63.8495 50.8998 64.7068 52.0574 65.4421C54.281 66.8563 56.7662 67.3317 59.3431 67.4419C63.2535 67.611 67.0688 67.0271 70.8303 65.978C76.2003 64.4805 80.8695 61.8354 84.6142 57.6626C87.732 54.188 89.959 50.2667 90.436 45.5318C90.669 43.2208 90.4208 40.9568 89.3389 38.8485C88.1653 36.5644 86.2993 34.8658 84.0682 33.6955C80.819 31.9919 77.3125 31 73.6932 31H70.0672C65.684 31 61.4464 32.2561 57.3274 33.7544C54.2095 34.8893 51.1522 36.2287 48.1841 37.7111C41.7204 40.9408 35.7008 44.8352 30.7565 50.1901C28.2932 52.8579 26.2076 55.8016 25.0079 59.2678C24.6458 60.3026 24.3339 61.3544 24.0732 62.4193M47.4942 92.7171C47.2141 96.4685 45.5138 99.5098 42.735 101.973C41.1718 103.358 39.379 104.344 37.2909 104.691C36.5337 104.816 35.7589 104.846 35.0244 104.532C33.977 104.085 33.7423 103.155 33.7221 102.165C33.691 100.587 34.2437 99.1598 35.0017 97.802C35.9911 96.0319 37.4415 94.6824 38.9903 93.4221C41.4301 91.4358 44.0768 89.7549 46.7875 88.1682L46.992 88.0841C47.4109 89.6321 47.6103 91.1607 47.4942 92.7171ZM68.6597 76.4135C68.462 77.6115 68.2147 78.8104 67.8647 79.9714C66.6549 83.9903 65.101 87.8847 63.4209 91.7269C63.1105 92.4378 62.6587 93.0865 62.2658 93.7603C62.199 93.8639 62.1189 93.9584 62.0277 94.0413C61.5414 94.5217 61.0804 94.4965 60.8347 93.868C60.5487 93.1378 60.3729 92.3562 60.2214 91.583C60.1196 91.064 60.144 90.5188 60.1121 89.9871C60.1449 86.2063 61.2983 82.7704 63.2552 79.5718C64.062 78.2526 64.9403 76.9957 66.2822 76.1611C66.6996 75.9016 67.1513 75.7017 67.6241 75.5672C68.3392 75.3661 68.7783 75.6967 68.6597 76.4135ZM83.0998 94.8111L88.2898 88.7512C88.506 91.0017 84.6806 95.4943 83.0998 94.8111ZM99.676 90.7333C99.3092 90.9437 98.9096 91.0951 98.5335 91.2894C98.1894 91.4678 98.0758 91.2877 98.0658 90.9916C98.0607 90.7866 98.0871 90.582 98.144 90.385C98.8448 87.9133 100.135 85.8033 102.054 84.087L102.188 84.018C103.101 86.5714 102.046 89.3755 99.676 90.7333Z" fill="#CB6699"/>
</svg>
