<svg width="141" height="141" viewBox="0 0 141 141" fill="none" xmlns="http://www.w3.org/2000/svg">
<rect width="141" height="141" rx="40" fill="#1E2235"/>
<path d="M32 31H110.333V109.333H32V31Z" fill="#017ACB"/>
<path d="M69.6123 60.0081H73.3699V66.4951H63.211V95.356L62.9417 95.4295C62.5745 95.5274 57.7399 95.5274 56.6995 95.4172L55.8672 95.3438V66.4951H45.7084V60.0081L48.9274 59.9714C50.6899 59.9469 55.2185 59.9469 58.9883 59.9714C62.7581 59.9959 67.5316 60.0081 69.6123 60.0081V60.0081ZM98.2897 92.2961C96.7965 93.875 95.1931 94.7563 92.5249 95.4784C91.3621 95.7966 91.1663 95.8089 88.547 95.7966C85.9277 95.7844 85.7196 95.7844 84.4467 95.4539C81.1543 94.6094 78.4983 92.9571 76.6868 90.6193C76.1728 89.9584 75.3282 88.5875 75.3282 88.4162C75.3282 88.3672 75.4506 88.2571 75.6097 88.1836C75.7688 88.1102 76.0993 87.9021 76.3686 87.743C76.6379 87.5839 77.1274 87.2901 77.4579 87.1188C77.7884 86.9474 78.7431 86.3844 79.5754 85.8826C80.4077 85.3808 81.1665 84.9769 81.2522 84.9769C81.3379 84.9769 81.497 85.1482 81.6194 85.3563C82.3537 86.5925 84.0673 88.1714 85.279 88.7099C86.0256 89.0282 87.678 89.3831 88.4736 89.3831C89.2079 89.3831 90.5543 89.0649 91.2764 88.7344C92.0475 88.3795 92.4392 88.0245 92.9043 87.3146C93.2225 86.8128 93.2592 86.6782 93.247 85.7235C93.247 84.8422 93.198 84.5974 92.9532 84.1935C92.2678 83.0675 91.3376 82.48 87.5678 80.8154C83.6756 79.0896 81.9254 78.0615 80.5056 76.6784C79.453 75.6503 79.2449 75.3688 78.584 74.0836C77.7272 72.4313 77.617 71.8927 77.6048 69.4326C77.5925 67.7068 77.6293 67.1438 77.8129 66.5563C78.0699 65.675 78.9022 63.9737 79.2816 63.5453C80.0649 62.6274 80.3465 62.3459 80.8972 61.893C82.5618 60.5222 85.1566 59.6164 87.6413 59.5308C87.9228 59.5308 88.853 59.5797 89.722 59.6409C92.2189 59.849 93.9202 60.461 95.5603 61.7706C96.7965 62.7498 98.6691 65.0508 98.4855 65.3568C98.3632 65.5404 93.4796 68.7961 93.1613 68.894C92.9655 68.9552 92.8308 68.8818 92.5616 68.5636C90.897 66.5685 90.2238 66.1401 88.6082 66.0422C87.4577 65.9688 86.8457 66.1034 86.0746 66.6175C85.2668 67.156 84.8751 67.9761 84.8751 69.1144C84.8873 70.7789 85.5238 71.5623 87.8738 72.725C89.3915 73.4716 90.6889 74.0836 90.7868 74.0836C90.9337 74.0836 94.0793 75.6503 94.8993 76.1399C98.7181 78.3797 100.273 80.6808 100.676 84.6464C100.97 87.6328 100.126 90.3623 98.2897 92.2961V92.2961Z" fill="#1E2235"/>
</svg>
