<svg width="142" height="141" viewBox="0 0 142 141" fill="none" xmlns="http://www.w3.org/2000/svg">
<path d="M31.5298 31.333H109.863V109.666H31.5298V31.333Z" fill="#017ACB"/>
<path d="M69.1421 60.3411H72.8997V66.8281H62.7408V95.689L62.4715 95.7625C62.1043 95.8604 57.2697 95.8604 56.2293 95.7502L55.397 95.6768V66.8281H45.2382V60.3411L48.4572 60.3044C50.2197 60.2799 54.7483 60.2799 58.5181 60.3044C62.2879 60.3289 67.0614 60.3411 69.1421 60.3411ZM97.8195 92.6291C96.3263 94.208 94.7229 95.0893 92.0546 95.8114C90.8919 96.1297 90.696 96.1419 88.0768 96.1297C85.4575 96.1174 85.2494 96.1174 83.9765 95.7869C80.6841 94.9424 78.0281 93.2901 76.2166 90.9523C75.7025 90.2914 74.858 88.9205 74.858 88.7492C74.858 88.7002 74.9804 88.5901 75.1395 88.5166C75.2986 88.4432 75.6291 88.2351 75.8984 88.076C76.1676 87.9169 76.6572 87.6231 76.9877 87.4518C77.3182 87.2804 78.2729 86.7174 79.1051 86.2156C79.9374 85.7138 80.6963 85.3099 80.782 85.3099C80.8676 85.3099 81.0268 85.4812 81.1492 85.6893C81.8835 86.9255 83.5971 88.5044 84.8088 89.0429C85.5554 89.3612 87.2078 89.7161 88.0033 89.7161C88.7377 89.7161 90.0841 89.3979 90.8062 89.0674C91.5773 88.7125 91.969 88.3575 92.4341 87.6476C92.7523 87.1458 92.789 87.0112 92.7768 86.0565C92.7768 85.1752 92.7278 84.9304 92.483 84.5265C91.7976 83.4005 90.8674 82.813 87.0976 81.1484C83.2054 79.4226 81.4551 78.3945 80.0354 77.0114C78.9827 75.9833 78.7747 75.7018 78.1137 74.4166C77.257 72.7643 77.1468 72.2257 77.1346 69.7656C77.1223 68.0398 77.159 67.4768 77.3426 66.8893C77.5997 66.008 78.432 64.3067 78.8114 63.8784C79.5947 62.9604 79.8762 62.6789 80.427 62.226C82.0916 60.8552 84.6864 59.9494 87.171 59.8638C87.4526 59.8638 88.3828 59.9127 89.2518 59.9739C91.7487 60.182 93.45 60.794 95.0901 62.1036C96.3263 63.0828 98.1989 65.3838 98.0153 65.6898C97.8929 65.8734 93.0093 69.1291 92.6911 69.2271C92.4953 69.2882 92.3606 69.2148 92.0914 68.8966C90.4268 66.9015 89.7536 66.4731 88.138 66.3752C86.9874 66.3018 86.3755 66.4364 85.6044 66.9505C84.7966 67.489 84.4049 68.3091 84.4049 69.4474C84.4171 71.1119 85.0536 71.8953 87.4036 73.058C88.9213 73.8047 90.2187 74.4166 90.3166 74.4166C90.4635 74.4166 93.6091 75.9833 94.4291 76.4729C98.2479 78.7127 99.8023 81.0138 100.206 84.9794C100.5 87.9658 99.6554 90.6953 97.8195 92.6291Z" fill="#1E2235"/>
</svg>
