<svg width="142" height="141" viewBox="0 0 142 141" fill="none" xmlns="http://www.w3.org/2000/svg">
<path d="M32.4001 58.7759C32.4001 58.7759 30.4922 57.4006 32.7816 55.5643L38.1158 50.7945C38.1158 50.7945 39.6422 49.1887 41.2559 50.5878L90.4799 87.8556V105.726C90.4799 105.726 90.4561 108.533 86.8549 108.223L32.4001 58.7759Z" fill="#2489CA"/>
<path d="M45.0876 70.2954L32.4001 81.8303C32.4001 81.8303 31.0963 82.8001 32.4001 84.5332L38.2907 89.8912C38.2907 89.8912 39.6899 91.3937 41.7568 89.6845L55.2075 79.4852L45.0876 70.2954Z" fill="#1070B3"/>
<path d="M67.3626 70.3905L90.6311 52.623L90.4801 34.8477C90.4801 34.8477 89.4864 30.9682 86.1714 32.9874L55.2076 61.1689L67.3626 70.3905Z" fill="#0877B9"/>
<path d="M86.8551 108.247C88.2065 109.63 89.8441 109.177 89.8441 109.177L107.977 100.241C110.298 98.6593 109.973 96.6957 109.973 96.6957V43.3379C109.973 40.9927 107.572 40.1819 107.572 40.1819L91.8554 32.6059C88.4211 30.4833 86.1714 32.9874 86.1714 32.9874C86.1714 32.9874 89.065 30.9046 90.4801 34.8477V105.401C90.4801 105.886 90.3767 106.362 90.17 106.792C89.7567 107.626 88.8584 108.406 86.704 108.08L86.8551 108.247Z" fill="#3C99D4"/>
</svg>
